<?xml version="1.0" encoding="utf-8"?>
<!-- Generator: Adobe Illustrator 15.1.0, SVG Export Plug-In . SVG Version: 6.00 Build 0)  -->
<!DOCTYPE svg PUBLIC "-//W3C//DTD SVG 1.1//EN" "http://www.w3.org/Graphics/SVG/1.1/DTD/svg11.dtd">
<svg version="1.1" id="Layer_1" xmlns="http://www.w3.org/2000/svg" xmlns:xlink="http://www.w3.org/1999/xlink" x="0px" y="0px"
	 width="1127px" height="377px" viewBox="0 0 1127 377" enable-background="new 0 0 1127 377" xml:space="preserve">
<g>
	<g>
		<g>
			<path fill="#F6FAFD" d="M175.771,275.749c3.258,0.38,6.063,0.891,7.631,1.44l35.846,12.618c3.12,1.097,2.703,2.844-0.948,3.887
				l-41.798,11.937c-3.65,1.042-12.155,1.842-18.911,1.783l-77.667-0.677c-3.381-0.031-7.093-0.282-10.353-0.665
				c-3.259-0.382-6.064-0.891-7.625-1.438l-35.84-12.619c-3.134-1.101-2.717-2.845,0.932-3.887l41.8-11.937
				c3.649-1.044,12.154-1.842,18.925-1.782l77.66,0.675C168.8,275.114,172.511,275.366,175.771,275.749z"/>
		</g>
	</g>
	<g>
		<g>
			<path fill="#F6FAFD" d="M172.873,319.187c3.26,0.381,6.065,0.893,7.631,1.44l35.847,12.618c3.121,1.098,2.705,2.846-0.948,3.888
				l-41.798,11.937c-3.651,1.042-12.154,1.842-18.91,1.783l-77.668-0.677c-3.38-0.031-7.093-0.281-10.353-0.665
				c-3.258-0.382-6.062-0.891-7.625-1.438l-35.839-12.619c-3.133-1.101-2.717-2.846,0.933-3.888l41.799-11.937
				c3.649-1.044,12.152-1.842,18.924-1.783l77.661,0.677C165.904,318.552,169.614,318.805,172.873,319.187z"/>
		</g>
	</g>
	<g>
		<g>
			<path fill="#F6FAFD" d="M1057.145,258.426c3.26,0.381,6.065,0.893,7.633,1.441l35.845,12.618c3.12,1.097,2.703,2.844-0.946,3.887
				l-41.799,11.937c-3.649,1.042-12.152,1.842-18.912,1.783l-77.667-0.676c-3.381-0.032-7.094-0.284-10.351-0.666
				c-3.262-0.381-6.066-0.891-7.627-1.438l-35.839-12.619c-3.135-1.1-2.719-2.846,0.932-3.888l41.798-11.937
				c3.652-1.042,12.156-1.841,18.927-1.783l77.661,0.676C1050.175,257.794,1053.887,258.044,1057.145,258.426z"/>
		</g>
	</g>
	<g>
		<path opacity="0.12" fill="#6C6C7C" d="M699.992,195.843c0,5.006-26.386,9.066-58.938,9.066c-32.549,0-58.935-4.06-58.935-9.066
			c0-5.012,26.386-9.072,58.935-9.072C673.606,186.771,699.992,190.831,699.992,195.843z"/>
		<g>
			<path fill="#403F56" d="M671.724,138.033c0,0-7.475,14.28-23.454,19.368c-15.966,5.103-47.577-17.327-47.577-17.327
				l23.115,16.995l-16.997,4.756c0,0-40.439-27.867-35.008-44.521c5.441-16.656,58.462,6.798,58.462,6.798L671.724,138.033z"/>
			<path fill="#403F56" d="M620.392,155.564c0,0,9.873,8.638,13.27,13.057c1.999,2.478,2.634,5.795,1.699,8.84l-1.022,13.931
				l-6.795-0.339l1.362-12.237c0,0-5.778,9.179-8.163,14.274c-2.379,5.098-16.988,4.082-22.769,3.059
				c-5.777-1.017-1.022-5.775,6.115-7.475c7.135-1.697,9.516-16.655,9.516-16.655l-7.13-12.573L620.392,155.564z"/>
			<polygon fill="#302F41" points="630.656,22.969 660.054,30.053 649.817,57.945 616.159,54.937 			"/>
			<path fill="#403F56" d="M681.922,153.671c-3.062,19.367-28.551,5.436-28.551,5.436l11.215,4.758
				c0.344,8.837-8.834,14.275-8.834,14.275l-6.794-4.761c0,0-29.571-0.34-38.067-20.733c-8.495-20.389,44.861-18.688,44.861-18.688
				S684.977,134.299,681.922,153.671z"/>
			<path fill="#403F56" d="M655.752,175.758l4.078,5.099l-0.681,11.894c0,0-11.896,6.799-12.235,10.202
				c-0.341,3.395,15.294,0.333,22.771,0c7.479-0.342,8.838-18.357,8.838-18.357l1.696,11.896l5.782-2.042
				c0,0-3.233-13.763-1.535-21.579c1.703-7.82-22.943-8.668-22.943-8.668L655.752,175.758z"/>
			<path fill="#9D636C" d="M658.467,38.454c0,8.634-6.997,15.635-15.626,15.635c-8.639,0-15.639-7-15.639-15.635
				c0-8.634,7-15.632,15.639-15.632C651.47,22.821,658.467,29.82,658.467,38.454z"/>
			<path fill="#9D636C" d="M640.462,48.99c0.588,2.668,1.386,5.273,2.379,7.815c1.691,4.416-5.783,1.362-5.783,1.362l1.7,7.132
				l18.016,19.714l14.438-18.518c0,0,1.87-7.993-6.626-9.69c-8.49-1.696-8.834-15.631-8.834-15.631L640.462,48.99z"/>
			<path fill="#F39B31" d="M656.367,64.941c-1.582,3.085-5.369,4.304-8.453,2.719c-5.147-2.75-2.523-9.579-5.073-10.855
				c-2.279-1.136-6.231-0.583-10.706-0.506c-2.114,0.038-1.273,2.985-1.362,5.098l-4.76,58.794c0,0-2.205,12.065,27.023,14.783
				c29.226,2.719,28.543,21.074,28.543,21.074s0.803-1.762,1.87-6.288c1.838-7.784,0.466-16.982-2.17-24.53
				c-0.022-0.075-0.042-0.112-0.042-0.112s1.024-16.992,4.424-40.782c3.396-23.793-23.961-28.379-23.961-28.379
				c-2.77,3.92-4.306,6.645-5.122,8.541C656.515,64.651,656.446,64.793,656.367,64.941z"/>
			<path fill="#1E1E1C" d="M664.516,34.592c0.345,2.2,0.161,4.45-0.535,6.566c-0.852,2.79,1.091,6.02,1.091,6.02
				c7.338,8.32,3.911,8.811,3.911,8.811l-12.721,1.468v-1.959l-2.447,1.468l-5.382,2.939c0,0,2.935-1.466-0.489-6.854
				c-3.426-5.379,2.447-12.232,5.383-15.17c0.028-0.027,0.06-0.062,0.083-0.085c0.415-0.427,0.683-0.97,0.788-1.555
				c0.268-1.611-0.818-3.137-2.426-3.405c-4.64-0.784-13.127-4.25-13.127-4.25l2.443,2.446c-6.847,0-10.271-6.363-10.271-6.363
				l-0.057,0.12c-2.596,5.792-4.323,11.923-5.135,18.224l-1.661,12.978l-7.831-0.975l0,0c1.689-3.364,3.579-6.619,5.654-9.757
				c3.182-4.832,2.926-8.531,2.514-10.243c-0.368-1.514-0.534-3.067-0.486-4.624c0.441-9.247,7.487-11.594,7.487-11.594
				C656.418,7.173,662.87,25.414,664.516,34.592z"/>
			<polygon opacity="0.2" fill="#010202" enable-background="new    " points="674.272,112.853 679.375,121.21 675.277,110.803 			
				"/>
			<path fill="#9D636C" d="M670.027,93.511l-12.576,26.167l-40.105,11.898c0,0-16.313,21.413-12.913,26.51
				c3.399,5.096,18.354-19.716,18.354-19.716l41.8-5.773l17.676-36.026L670.027,93.511z"/>
			<path fill="#9D636C" d="M619.124,76.386l-12.577,26.167l-40.105,11.896c0,0-26.776,4.914-23.379,10.014
				c3.397,5.095,28.82-3.215,28.82-3.215l41.805-5.776l17.672-36.026L619.124,76.386z"/>
			<path fill="#F39B31" d="M665.947,97.932c4.757-1.7,13.428,23.278,13.428,23.278s7.813-41.805,5.775-49.619
				c-2.042-7.82-10.538-10.194-10.538-10.194C665.434,65.133,665.947,97.932,665.947,97.932z"/>
			<path fill="#F39B31" d="M633.661,93.175c0-1.704-26.68,0.847-26.68,0.847s18.183-30.077,22.257-35.179
				c4.084-5.098,8.84-1.357,8.84-1.357L633.661,93.175z"/>
		</g>
	</g>
	<g>
		<g>
			<path fill="#F6FAFD" d="M896.052,213.162c3.258,0.38,6.064,0.891,7.631,1.439l35.847,12.618c3.119,1.097,2.703,2.844-0.946,3.888
				l-41.8,11.935c-3.649,1.042-12.154,1.841-18.911,1.783l-77.668-0.676c-3.38-0.03-7.093-0.284-10.352-0.666
				c-3.26-0.38-6.064-0.892-7.626-1.439l-35.839-12.617c-3.135-1.099-2.718-2.847,0.933-3.888l41.798-11.936
				c3.651-1.043,12.155-1.844,18.925-1.782l77.661,0.674C889.081,212.526,892.793,212.779,896.052,213.162z"/>
		</g>
		<path fill="#E6EEF4" d="M941.593,229.136c-0.011,0.051-0.015,0.099-0.032,0.15c-0.021,0.055-0.054,0.112-0.084,0.167
			c-0.021,0.04-0.036,0.076-0.062,0.113c-0.121,0.179-0.302,0.354-0.532,0.525c-0.034,0.023-0.072,0.047-0.106,0.073
			c-0.088,0.06-0.187,0.123-0.291,0.181c-0.041,0.024-0.079,0.046-0.122,0.069c-0.289,0.155-0.625,0.302-1.008,0.441
			c-0.044,0.017-0.091,0.031-0.135,0.047c-0.201,0.07-0.412,0.139-0.637,0.205l-41.8,11.935c-0.202,0.057-0.425,0.113-0.654,0.17
			c-0.066,0.016-0.136,0.033-0.203,0.047c-0.17,0.041-0.348,0.079-0.528,0.118c-0.142,0.028-0.286,0.058-0.435,0.087
			c-0.125,0.026-0.253,0.048-0.384,0.074c-0.266,0.048-0.547,0.098-0.833,0.146c-0.117,0.018-0.232,0.039-0.354,0.058
			c-0.47,0.076-0.962,0.147-1.473,0.216c-0.058,0.006-0.113,0.014-0.171,0.021c-0.544,0.074-1.108,0.141-1.69,0.206
			c-0.031,0.003-0.061,0.007-0.092,0.01c-0.583,0.063-1.186,0.122-1.794,0.179c-0.1,0.008-0.198,0.019-0.299,0.025
			c-1.123,0.1-2.281,0.186-3.448,0.253c-0.095,0.003-0.188,0.008-0.283,0.014c-0.729,0.04-1.457,0.072-2.185,0.098
			c-0.399,0.014-0.796,0.026-1.194,0.034c-0.177,0.005-0.354,0.009-0.532,0.012c-0.35,0.005-0.697,0.012-1.041,0.015
			c-0.033,0-0.063,0-0.095,0c-0.413,0.003-0.822,0.003-1.224-0.002l-77.668-0.676c-0.839-0.008-1.696-0.029-2.563-0.063
			c-0.022,0-0.045-0.002-0.064-0.003c-0.847-0.032-1.7-0.077-2.551-0.132c-0.023-0.002-0.045-0.003-0.069-0.005
			c-1.748-0.115-3.481-0.272-5.104-0.462c-0.314-0.036-0.622-0.076-0.93-0.115c-0.098-0.014-0.202-0.025-0.299-0.039
			c-0.209-0.028-0.408-0.055-0.609-0.083c-0.226-0.031-0.449-0.062-0.668-0.096c-0.181-0.026-0.355-0.055-0.533-0.083
			c-0.275-0.044-0.546-0.09-0.808-0.136c-0.133-0.022-0.268-0.044-0.398-0.069c-0.442-0.083-0.865-0.163-1.258-0.249
			c-0.076-0.017-0.142-0.033-0.215-0.049c-0.29-0.064-0.564-0.131-0.821-0.198c-0.087-0.022-0.172-0.046-0.256-0.068
			c-0.303-0.082-0.587-0.167-0.831-0.253l-35.839-12.617c-1.413-0.496-2.104-1.121-2.104-1.755
			c-0.01,15.238-0.021,49.131-0.032,64.369c0,0.635,0.692,1.262,2.104,1.757l35.839,12.618c0.246,0.085,0.53,0.17,0.831,0.252
			c0.083,0.022,0.169,0.048,0.257,0.067c0.261,0.069,0.536,0.136,0.833,0.203c0.048,0.011,0.085,0.021,0.133,0.033
			c0.019,0.003,0.043,0.005,0.062,0.011c0.403,0.089,0.837,0.175,1.294,0.257c0.032,0.006,0.058,0.013,0.088,0.018
			c0.064,0.011,0.136,0.022,0.2,0.032c0.317,0.057,0.644,0.11,0.981,0.165c0.071,0.011,0.137,0.022,0.21,0.034
			c0.051,0.007,0.107,0.014,0.157,0.021c0.338,0.053,0.682,0.102,1.033,0.148c0.062,0.009,0.118,0.02,0.179,0.025
			c0.016,0.004,0.033,0.005,0.048,0.007c0.411,0.055,0.829,0.106,1.257,0.157c0.015,0.001,0.027,0.005,0.042,0.006
			c0.008,0,0.014,0,0.022,0.002c0.422,0.051,0.852,0.099,1.286,0.143c0.42,0.042,0.842,0.083,1.268,0.122
			c0.399,0.035,0.801,0.069,1.205,0.102c0.378,0.029,0.761,0.057,1.143,0.083c0.053,0.004,0.11,0.007,0.163,0.009
			c0.057,0.004,0.114,0.007,0.171,0.012c0.244,0.017,0.488,0.034,0.734,0.046c0.328,0.019,0.659,0.036,0.987,0.052
			c0.244,0.01,0.487,0.021,0.732,0.032c0.04,0.001,0.081,0.001,0.122,0.003c0.017,0,0.032,0,0.048,0.004
			c0.271,0.009,0.542,0.019,0.81,0.026c0.244,0.008,0.484,0.012,0.723,0.019c0.215,0.003,0.427,0.008,0.641,0.011
			c0.107,0,0.213,0.004,0.319,0.004l77.666,0.675c0.083,0.001,0.164,0.001,0.247,0.003c0.194,0,0.392,0,0.589,0
			c0.083,0,0.164-0.002,0.246-0.002c0.142-0.001,0.284-0.001,0.429-0.003c0.209-0.001,0.42-0.004,0.632-0.006
			c0.074-0.003,0.15-0.003,0.227-0.006c0.139-0.001,0.275-0.004,0.413-0.009c0.054,0,0.106-0.002,0.161-0.003
			c0.251-0.005,0.504-0.015,0.755-0.021c0.095-0.004,0.187-0.005,0.281-0.01c0.001,0,0.001,0,0.005,0c0.003,0,0.006,0,0.01,0
			c0.724-0.023,1.453-0.057,2.182-0.098c0.054-0.002,0.107-0.003,0.161-0.007c0.061-0.004,0.12-0.006,0.18-0.009
			c0.024-0.002,0.047-0.003,0.072-0.005c1.168-0.067,2.323-0.154,3.447-0.253c0.031-0.003,0.068-0.004,0.102-0.008
			c0.044-0.004,0.085-0.01,0.129-0.012c0.603-0.055,1.195-0.113,1.772-0.175c0.026-0.006,0.057-0.008,0.086-0.011
			c0.066-0.007,0.128-0.015,0.193-0.024c0.491-0.056,0.97-0.111,1.437-0.173c0.076-0.008,0.161-0.021,0.237-0.029
			c0.04-0.004,0.074-0.011,0.113-0.018c0.493-0.065,0.966-0.134,1.421-0.208c0.033-0.004,0.07-0.009,0.105-0.015
			c0.08-0.012,0.149-0.026,0.229-0.04c0.295-0.049,0.579-0.1,0.854-0.15c0.058-0.011,0.123-0.021,0.179-0.029
			c0.062-0.014,0.114-0.025,0.175-0.036c0.18-0.037,0.354-0.072,0.522-0.107c0.066-0.017,0.14-0.028,0.202-0.043
			c0.062-0.014,0.121-0.029,0.185-0.043c0.111-0.028,0.225-0.053,0.333-0.078c0.048-0.013,0.101-0.024,0.146-0.035
			c0.158-0.04,0.311-0.08,0.456-0.122l41.799-11.936c0.02-0.007,0.04-0.011,0.061-0.019c0.152-0.044,0.3-0.088,0.441-0.138
			c0.045-0.014,0.086-0.03,0.13-0.045c0.051-0.015,0.099-0.035,0.147-0.054c0.047-0.012,0.097-0.03,0.142-0.047
			c0.138-0.053,0.27-0.107,0.395-0.161c0.13-0.056,0.255-0.114,0.369-0.176c0.035-0.015,0.063-0.035,0.098-0.054
			c0.043-0.023,0.085-0.045,0.127-0.069c0.038-0.023,0.082-0.044,0.119-0.067c0.062-0.039,0.114-0.077,0.171-0.116
			c0.031-0.022,0.065-0.043,0.095-0.065c0.014-0.011,0.032-0.019,0.044-0.03c0.098-0.074,0.183-0.146,0.259-0.223
			c0.003-0.003,0.008-0.004,0.009-0.005l0,0c0.086-0.083,0.158-0.167,0.218-0.252c0.005-0.006,0.007-0.015,0.012-0.021
			c0.023-0.033,0.036-0.066,0.055-0.102c0.028-0.051,0.062-0.104,0.084-0.154c0.003-0.006,0.001-0.018,0.004-0.024
			c0.021-0.048,0.024-0.1,0.032-0.15c0.01-0.042,0.025-0.082,0.028-0.121c0-0.014,0-0.029,0-0.042
			c0.011-15.239,0.022-49.133,0.031-64.371C941.62,229.026,941.604,229.083,941.593,229.136z"/>
	</g>
	<g>
		<path fill="#F7BFC7" d="M744.734,168.545l-1.801,2.089c0,0-21.876,2.053-20.989,5.602c0.89,3.552,26.343-4.736,26.343-4.736
			L744.734,168.545z"/>
		<path fill="#585EA7" d="M784.394,166.773c0,0-23.384,8.282-36.106,4.727l5.918,11.842c0,0,30.188-0.888,35.511-6.212
			C795.042,171.799,784.394,166.773,784.394,166.773z"/>
		<path fill="#E13A6F" d="M784.394,166.773c0,0-23.384,8.282-36.106,4.727l5.918,11.842c0,0,30.188-0.888,35.511-6.212
			C795.042,171.799,784.394,166.773,784.394,166.773z"/>
		<path fill="#F7BFC7" d="M768.56,71.923c8.662,0,15.682,7.021,15.682,15.682c0,8.663-7.02,15.684-15.682,15.684
			c-8.667,0-15.688-7.021-15.688-15.684C752.872,78.944,759.893,71.923,768.56,71.923z"/>
		<path fill="#F7BFC7" d="M781.93,102.33c0.54,1.033,1.224,1.979,2.033,2.819c2.148,2.337,4.714,4.258,7.562,5.657
			c-8.903,1.809-17.896,3.147-26.939,4.005c0.958-3.364-0.302-6.959-1.989-10.02c-1.689-3.058-3.844-5.913-4.901-9.246l10.601,0.287
			c1.925,0.054,3.856,0.11,5.778,0.017c1.438-0.07,3.834-0.933,5.176-0.613C782.085,95.902,780.694,99.812,781.93,102.33z"/>
		<path fill="#302F42" d="M817.536,175.942l8.879,10.656c0,0,14.795,34.625-17.46,38.178c-32.261,3.549-56.23-2.665-56.23-2.665
			s-13.018-6.217-13.316-1.485c-0.297,4.74-1.477,18.058-8.585,31.079l-6.213,14.206c0,0-3.258,3.252-2.365,7.69
			c0.886,4.442-19.831,5.92-19.533,0c0,0,2.958-5.027,2.958-7.989s4.735-10.061,4.735-10.061l8.581-42.616
			c0,0-0.588-21.902,19.533-17.759c20.125,4.145,48.831-0.887,48.831-0.887l6.512-22.791L817.536,175.942z"/>
		<path fill="#403F56" d="M817.536,175.942l8.879,10.656c0,0,14.795,34.625-17.46,38.178c-32.261,3.549-56.23-2.665-56.23-2.665
			s-13.018-6.217-13.316-1.485c-0.297,4.74-1.477,18.058-8.585,31.079l-6.213,14.206c0,0-3.258,3.252-2.365,7.69
			c0.886,4.442-19.831,5.92-19.533,0c0,0,2.958-5.027,2.958-7.989s4.735-10.061,4.735-10.061l8.581-42.616
			c0,0-0.588-21.902,19.533-17.759c20.125,4.145,48.831-0.887,48.831-0.887l6.512-22.791L817.536,175.942z"/>
		<path fill="#403F56" d="M784.241,175.163c0,0,27.081-10.168,42.174,11.436c0,0,3.846,33.442-11.545,34.922
			c-15.385,1.477-35.51,1.183-40.246-3.85C769.889,212.641,740,198.436,740,198.436s-14.881-7.588-17.797,2.269
			c-2.919,9.866-3.217,12.231-3.217,12.231s-15.389,11.244-21.603,13.318c0,0-4.144,5.918-6.51,5.918
			c-2.37,0-16.871,3.254-15.388-7.693l23.971-21.9l23.967-23.379c0,0,6.812-10.064,24.27-4.736
			c11.588,3.447,23.343,6.313,35.218,8.583L784.241,175.163z"/>
		<path fill="#E13A6F" d="M721.353,273.012c0,0,5.626,14.206,0.893,15.979c-4.735,1.777-14.799,0.595-14.799,0.595
			s-11.838-1.48-14.8-1.181c-2.956,0.29-15.088-2.077-13.314-6.811c1.774-4.738,10.95-3.55,10.95-3.55l8.285-3.847
			c0,0,0.89-2.958,2.962-1.779C703.598,273.602,709.515,278.043,721.353,273.012z"/>
		<path fill="#E13A6F" d="M690.576,230.989c0,0,6.219,13.908-3.848,12.722c-10.061-1.181-17.754-3.251-20.715-3.548
			c-2.847-0.285-10.896-3.035-9.662-8.511c0.066-0.354,0.095-0.716,0.081-1.074c0-0.733,0.997-2.179,8.988-1.959
			c0,0,5.921,0,8.289-4.14C673.71,224.479,682.589,235.726,690.576,230.989z"/>
		<path fill="#E13A6F" d="M757.755,112.608c0,0,21.308-13.312,39.067,0c17.755,13.32,29.593,73.99,29.593,73.99l-41.138-9.176
			c0,0-1.776-7.104-4.139-8.287c-2.372-1.183-2.668-6.212-2.668-6.212s-12.727-3.849-11.836-18.647
			C767.52,129.481,757.755,112.608,757.755,112.608z"/>
		<path fill="#E13A6F" d="M768.706,113.206h-10.951c0,0-6.509,7.395-7.399,26.042l-3.548,14.797c0,0-7.399,17.754-2.962,20.715
			c4.441,2.961,13.021,2.663,14.799-3.259c1.775-5.915,13.911-40.248,13.911-40.248L768.706,113.206z"/>
		<path fill="#302F42" d="M765.564,67.192c5.539-2.271,11.884-1.227,16.404,2.688c5.684,5.076,6.826,13.348,8.267,20.829
			c1.436,7.48,4.327,15.812,11.379,18.697c-3.178,0.424-6.406,0.33-9.556-0.277l10.657,9.546l-17.949-5.85
			c-5.632-1.834-11.55-3.693-17.382-2.658c-9.665,1.716-16.391,10.803-25.675,13.994l1.032-5.034l-6.225-0.051
			c1.49-1.102,2.712-2.53,3.565-4.18c-0.594-0.718-1.454-1.166-2.381-1.246c-2.597-16.188,7.02-32.196,19.549-42.77
			c2.466-2.083,5.19-4.084,8.373-4.602c3.182-0.522,6.898,0.903,8.009,3.93"/>
	</g>
	<g>
		<g>
			<path fill="#F6FAFD" d="M1060.252,301.475c3.258,0.383,6.064,0.892,7.631,1.439l35.845,12.619
				c3.121,1.097,2.705,2.846-0.944,3.887l-41.8,11.937c-3.65,1.042-12.153,1.843-18.911,1.783l-77.668-0.676
				c-3.381-0.031-7.093-0.283-10.353-0.665s-6.063-0.893-7.626-1.439l-35.84-12.619c-3.134-1.1-2.717-2.845,0.932-3.887
				l41.801-11.938c3.65-1.041,12.153-1.841,18.925-1.781l77.66,0.675C1053.281,300.842,1056.991,301.092,1060.252,301.475z"/>
		</g>
	</g>
	<g>
		<g>
			<path fill="#F6FAFD" d="M886.73,319.67c3.259,0.38,6.066,0.894,7.633,1.441l35.846,12.618c3.119,1.098,2.703,2.845-0.946,3.888
				l-41.8,11.936c-3.648,1.041-12.154,1.842-18.91,1.782l-77.668-0.676c-3.381-0.03-7.094-0.282-10.352-0.666
				c-3.262-0.38-6.065-0.891-7.626-1.438l-35.84-12.619c-3.135-1.1-2.719-2.846,0.933-3.888l41.799-11.934
				c3.65-1.045,12.154-1.845,18.925-1.785l77.661,0.678C879.761,319.034,883.473,319.289,886.73,319.67z"/>
		</g>
	</g>
	<g>
		<g>
			<path fill="#F6FAFD" d="M399.321,152.806c-3.26,0.38-6.066,0.894-7.631,1.442l-35.847,12.617
				c-3.121,1.098-2.704,2.845,0.947,3.887l41.799,11.937c3.65,1.043,12.153,1.843,18.911,1.782l77.668-0.675
				c3.379-0.031,7.093-0.283,10.353-0.667c3.258-0.38,6.062-0.893,7.625-1.438l35.84-12.62c3.133-1.099,2.716-2.845-0.933-3.886
				l-41.801-11.936c-3.649-1.044-12.152-1.844-18.925-1.784l-77.659,0.677C406.291,152.173,402.58,152.423,399.321,152.806z"/>
		</g>
		<path fill="#E6EEF4" d="M353.779,168.783c0.009,0.05,0.015,0.099,0.033,0.149c0.021,0.055,0.052,0.111,0.084,0.168
			c0.022,0.038,0.036,0.076,0.062,0.112c0.124,0.177,0.3,0.355,0.533,0.524c0.032,0.024,0.069,0.047,0.104,0.075
			c0.092,0.06,0.185,0.121,0.29,0.18c0.041,0.025,0.082,0.045,0.125,0.069c0.288,0.154,0.622,0.301,1.007,0.442
			c0.044,0.015,0.088,0.033,0.135,0.048c0.198,0.069,0.41,0.135,0.637,0.202l41.799,11.937c0.199,0.055,0.424,0.113,0.654,0.168
			c0.066,0.017,0.135,0.033,0.205,0.05c0.167,0.041,0.345,0.077,0.526,0.117c0.142,0.028,0.285,0.058,0.434,0.088
			c0.124,0.025,0.253,0.047,0.383,0.073c0.268,0.051,0.546,0.098,0.833,0.146c0.119,0.019,0.233,0.04,0.353,0.057
			c0.474,0.077,0.964,0.148,1.475,0.217c0.055,0.004,0.114,0.014,0.169,0.021c0.546,0.072,1.11,0.142,1.694,0.205
			c0.03,0.004,0.06,0.008,0.091,0.009c0.582,0.067,1.184,0.125,1.794,0.181c0.098,0.011,0.197,0.019,0.296,0.025
			c1.125,0.1,2.281,0.186,3.451,0.253c0.092,0.006,0.187,0.008,0.282,0.014c0.727,0.04,1.459,0.073,2.185,0.099
			c0.401,0.014,0.798,0.025,1.193,0.035c0.179,0.004,0.355,0.006,0.534,0.009c0.349,0.008,0.699,0.013,1.043,0.017
			c0.031,0,0.061,0,0.091,0c0.414,0.002,0.823,0.002,1.226-0.002l77.668-0.675c0.837-0.009,1.696-0.03,2.564-0.064
			c0.021,0,0.041,0,0.063-0.003c0.846-0.032,1.7-0.077,2.552-0.133c0.022-0.001,0.044-0.001,0.067-0.002
			c1.749-0.116,3.484-0.273,5.105-0.464c0.314-0.035,0.621-0.076,0.928-0.116c0.099-0.012,0.201-0.023,0.3-0.036
			c0.209-0.028,0.408-0.056,0.61-0.085c0.225-0.032,0.448-0.062,0.667-0.095c0.181-0.028,0.355-0.057,0.531-0.085
			c0.278-0.044,0.547-0.088,0.811-0.134c0.134-0.023,0.266-0.045,0.395-0.069c0.445-0.081,0.868-0.162,1.261-0.251
			c0.074-0.016,0.144-0.033,0.216-0.047c0.291-0.066,0.563-0.132,0.82-0.199c0.085-0.021,0.173-0.046,0.256-0.066
			c0.303-0.083,0.587-0.169,0.831-0.254l35.84-12.62c1.412-0.491,2.103-1.119,2.102-1.753c0.012,15.238,0.021,49.132,0.03,64.369
			c0,0.638-0.69,1.263-2.102,1.757l-35.839,12.617c-0.245,0.086-0.528,0.17-0.831,0.254c-0.082,0.022-0.17,0.045-0.257,0.066
			c-0.261,0.069-0.538,0.138-0.834,0.204c-0.048,0.009-0.084,0.022-0.134,0.031c-0.019,0.005-0.041,0.01-0.06,0.011
			c-0.402,0.09-0.837,0.177-1.293,0.259c-0.03,0.004-0.059,0.013-0.09,0.016c-0.064,0.012-0.136,0.024-0.199,0.034
			c-0.317,0.058-0.645,0.11-0.981,0.164c-0.073,0.011-0.137,0.023-0.21,0.034c-0.053,0.008-0.105,0.014-0.159,0.023
			c-0.334,0.051-0.68,0.1-1.031,0.147c-0.062,0.009-0.119,0.019-0.18,0.027c-0.017,0.003-0.032,0.004-0.047,0.006
			c-0.411,0.055-0.83,0.107-1.256,0.158c-0.016,0.001-0.028,0.003-0.043,0.004c-0.008,0.002-0.015,0.002-0.022,0.003
			c-0.421,0.049-0.853,0.096-1.288,0.14c-0.417,0.045-0.841,0.083-1.266,0.124c-0.399,0.036-0.801,0.069-1.205,0.101
			c-0.38,0.031-0.76,0.059-1.143,0.084c-0.055,0.003-0.11,0.005-0.165,0.011c-0.055,0.004-0.112,0.005-0.171,0.009
			c-0.242,0.017-0.488,0.033-0.731,0.046c-0.331,0.019-0.658,0.036-0.99,0.052c-0.242,0.01-0.485,0.022-0.729,0.032
			c-0.042,0.001-0.085,0.003-0.126,0.004c-0.016,0-0.032,0-0.047,0.001c-0.271,0.011-0.54,0.021-0.808,0.027
			c-0.242,0.008-0.482,0.012-0.724,0.019c-0.213,0.007-0.428,0.008-0.639,0.011c-0.107,0-0.215,0.003-0.322,0.003l-77.667,0.676
			c-0.081,0-0.162,0-0.245,0.001c-0.194,0-0.392,0-0.589,0c-0.081,0-0.163-0.001-0.245-0.001c-0.145,0-0.287,0-0.429-0.001
			c-0.21-0.003-0.421-0.006-0.634-0.009c-0.074-0.001-0.152-0.002-0.227-0.002c-0.138-0.003-0.275-0.007-0.414-0.011
			c-0.053,0-0.105,0-0.159-0.002c-0.251-0.004-0.503-0.016-0.756-0.022c-0.095-0.003-0.186-0.004-0.281-0.007
			c-0.001,0-0.003,0-0.003,0c-0.002,0-0.005,0-0.011,0c-0.724-0.026-1.454-0.06-2.181-0.099c-0.053-0.003-0.107-0.004-0.162-0.008
			c-0.062-0.003-0.12-0.006-0.182-0.01c-0.023,0-0.047-0.002-0.07-0.004c-1.167-0.068-2.323-0.153-3.448-0.252
			c-0.033-0.003-0.068-0.004-0.099-0.008c-0.047-0.003-0.088-0.01-0.132-0.013c-0.603-0.055-1.194-0.114-1.77-0.175
			c-0.029-0.004-0.06-0.005-0.088-0.009c-0.066-0.007-0.126-0.016-0.193-0.024c-0.491-0.055-0.971-0.111-1.435-0.173
			c-0.078-0.01-0.164-0.019-0.239-0.03c-0.04-0.003-0.075-0.011-0.114-0.017c-0.492-0.067-0.966-0.135-1.42-0.208
			c-0.034-0.005-0.072-0.011-0.105-0.015c-0.081-0.012-0.15-0.027-0.228-0.04c-0.295-0.048-0.581-0.099-0.855-0.149
			c-0.057-0.011-0.122-0.022-0.177-0.031c-0.062-0.013-0.114-0.025-0.176-0.036c-0.179-0.037-0.354-0.072-0.524-0.108
			c-0.063-0.012-0.137-0.028-0.198-0.041c-0.066-0.014-0.124-0.029-0.187-0.044c-0.113-0.025-0.224-0.052-0.333-0.079
			c-0.047-0.011-0.099-0.023-0.146-0.034c-0.16-0.04-0.313-0.081-0.457-0.121l-41.8-11.937c-0.019-0.007-0.038-0.011-0.059-0.019
			c-0.153-0.043-0.301-0.088-0.443-0.135c-0.044-0.017-0.085-0.032-0.128-0.046c-0.048-0.018-0.099-0.034-0.148-0.052
			c-0.045-0.015-0.096-0.033-0.14-0.051c-0.139-0.054-0.271-0.107-0.396-0.16c-0.131-0.058-0.254-0.117-0.372-0.175
			c-0.034-0.019-0.062-0.038-0.095-0.055c-0.044-0.023-0.084-0.047-0.125-0.071c-0.04-0.022-0.086-0.044-0.122-0.068
			c-0.061-0.037-0.113-0.077-0.17-0.114c-0.029-0.022-0.065-0.044-0.096-0.064c-0.013-0.011-0.031-0.021-0.045-0.032
			c-0.096-0.073-0.183-0.146-0.258-0.223c-0.003-0.001-0.007-0.003-0.01-0.006l0,0c-0.085-0.084-0.154-0.167-0.216-0.252
			c-0.005-0.004-0.007-0.014-0.011-0.019c-0.024-0.034-0.037-0.067-0.057-0.103c-0.026-0.051-0.063-0.103-0.082-0.154
			c-0.003-0.006-0.002-0.017-0.007-0.024c-0.015-0.049-0.022-0.099-0.031-0.15c-0.009-0.041-0.025-0.082-0.025-0.121
			c-0.002-0.015-0.002-0.029-0.002-0.043c-0.011-15.237-0.022-49.133-0.03-64.37C353.753,168.673,353.769,168.728,353.779,168.783z"
			/>
	</g>
	<g>
		<g>
			<path fill="#F6FAFD" d="M223.25,251.536c-3.261,0.382-6.067,0.894-7.633,1.442l-35.845,12.616
				c-3.123,1.097-2.705,2.846,0.946,3.887l41.798,11.937c3.65,1.042,12.154,1.844,18.911,1.783l77.666-0.676
				c3.381-0.03,7.095-0.282,10.354-0.664c3.258-0.381,6.062-0.893,7.627-1.44l35.839-12.619c3.133-1.097,2.715-2.845-0.934-3.887
				l-41.801-11.937c-3.649-1.042-12.151-1.842-18.923-1.782l-77.662,0.675C230.219,250.9,226.509,251.155,223.25,251.536z"/>
		</g>
		<path fill="#E6EEF4" d="M177.708,267.513c0.007,0.049,0.014,0.098,0.033,0.146c0.019,0.057,0.051,0.112,0.082,0.17
			c0.022,0.037,0.038,0.076,0.063,0.114c0.124,0.178,0.299,0.354,0.533,0.523c0.032,0.025,0.069,0.047,0.104,0.073
			c0.091,0.062,0.186,0.122,0.29,0.182c0.042,0.023,0.082,0.047,0.126,0.069c0.287,0.157,0.621,0.303,1.006,0.442
			c0.044,0.018,0.088,0.031,0.136,0.047c0.2,0.07,0.41,0.137,0.637,0.202l41.798,11.937c0.2,0.056,0.424,0.114,0.655,0.169
			c0.066,0.017,0.135,0.032,0.205,0.05c0.167,0.04,0.345,0.077,0.526,0.117c0.142,0.028,0.286,0.058,0.436,0.088
			c0.123,0.023,0.252,0.048,0.381,0.073c0.268,0.048,0.549,0.098,0.833,0.146c0.119,0.02,0.233,0.041,0.353,0.057
			c0.473,0.076,0.963,0.147,1.476,0.217c0.055,0.007,0.114,0.014,0.169,0.022c0.543,0.07,1.108,0.14,1.692,0.205
			c0.029,0.004,0.06,0.008,0.091,0.009c0.582,0.065,1.184,0.125,1.795,0.181c0.097,0.009,0.197,0.019,0.296,0.026
			c1.125,0.102,2.282,0.183,3.451,0.252c0.093,0.004,0.189,0.01,0.282,0.013c0.729,0.041,1.459,0.074,2.185,0.099
			c0.4,0.014,0.798,0.025,1.192,0.036c0.18,0.004,0.356,0.006,0.533,0.009c0.35,0.006,0.701,0.014,1.044,0.016
			c0.031,0,0.062,0,0.093,0c0.413,0.002,0.822,0.002,1.224-0.002l77.666-0.676c0.839-0.007,1.698-0.029,2.567-0.063
			c0.021,0,0.041-0.002,0.062-0.002c0.847-0.033,1.701-0.079,2.552-0.132c0.022-0.001,0.044-0.003,0.066-0.004
			c1.75-0.116,3.485-0.273,5.106-0.462c0.315-0.037,0.622-0.077,0.929-0.117c0.098-0.014,0.201-0.025,0.3-0.037
			c0.208-0.028,0.407-0.055,0.611-0.085c0.223-0.031,0.447-0.062,0.665-0.095c0.183-0.027,0.356-0.055,0.533-0.083
			c0.277-0.044,0.546-0.088,0.809-0.135c0.134-0.023,0.269-0.046,0.397-0.07c0.443-0.081,0.866-0.163,1.26-0.25
			c0.072-0.016,0.142-0.031,0.214-0.047c0.29-0.064,0.563-0.13,0.82-0.198c0.087-0.023,0.174-0.045,0.255-0.068
			c0.303-0.083,0.587-0.168,0.833-0.253l35.839-12.619c1.411-0.494,2.102-1.119,2.101-1.755c0.012,15.239,0.022,28.261,0.031,43.5
			c0.002,0.635-0.69,1.262-2.102,1.757l-35.839,12.617c-0.244,0.084-0.527,0.17-0.83,0.253c-0.083,0.022-0.17,0.046-0.256,0.068
			c-0.262,0.067-0.54,0.136-0.835,0.2c-0.047,0.012-0.084,0.023-0.133,0.033c-0.02,0.005-0.042,0.008-0.061,0.013
			c-0.403,0.088-0.836,0.174-1.293,0.257c-0.031,0.005-0.059,0.012-0.089,0.017c-0.065,0.012-0.137,0.021-0.2,0.032
			c-0.317,0.058-0.644,0.11-0.981,0.164c-0.071,0.013-0.136,0.023-0.208,0.034c-0.053,0.01-0.106,0.015-0.161,0.022
			c-0.333,0.054-0.68,0.104-1.031,0.149c-0.061,0.009-0.117,0.018-0.18,0.025c-0.017,0.002-0.032,0.003-0.047,0.007
			c-0.411,0.054-0.83,0.105-1.256,0.157c-0.015,0.002-0.028,0.003-0.043,0.006c-0.007,0-0.014,0-0.02,0.003
			c-0.423,0.049-0.854,0.096-1.29,0.141c-0.416,0.043-0.839,0.083-1.267,0.123c-0.398,0.036-0.8,0.07-1.205,0.103
			c-0.379,0.027-0.76,0.055-1.142,0.081c-0.055,0.004-0.108,0.007-0.163,0.011c-0.056,0.004-0.112,0.007-0.17,0.01
			c-0.245,0.016-0.49,0.033-0.734,0.046c-0.331,0.019-0.659,0.036-0.99,0.053c-0.242,0.011-0.486,0.02-0.728,0.029
			c-0.042,0.001-0.083,0.004-0.126,0.006c-0.016,0-0.032,0-0.045,0.002c-0.273,0.009-0.542,0.02-0.81,0.026
			c-0.242,0.008-0.482,0.015-0.723,0.019c-0.213,0.006-0.428,0.011-0.64,0.014c-0.107,0-0.215,0.001-0.321,0.001l-77.668,0.675
			c-0.08,0.002-0.164,0.002-0.244,0.004c-0.195,0-0.393,0-0.589,0c-0.082,0-0.164-0.002-0.246-0.002
			c-0.144-0.002-0.287-0.002-0.429-0.003c-0.209,0-0.421-0.002-0.632-0.006c-0.076-0.003-0.153-0.004-0.227-0.005
			c-0.137-0.003-0.276-0.006-0.415-0.009c-0.052,0-0.105-0.001-0.159-0.002c-0.25-0.007-0.502-0.015-0.755-0.022
			c-0.094-0.003-0.186-0.003-0.28-0.009h-0.003c-0.003,0-0.008,0-0.009,0c-0.726-0.025-1.456-0.059-2.183-0.097
			c-0.054-0.003-0.107-0.006-0.163-0.009c-0.06-0.002-0.12-0.006-0.181-0.008c-0.023-0.001-0.047-0.005-0.071-0.006
			c-1.167-0.068-2.323-0.152-3.446-0.253c-0.033-0.002-0.069-0.005-0.101-0.008c-0.046-0.003-0.089-0.008-0.133-0.012
			c-0.603-0.056-1.193-0.114-1.77-0.176c-0.028-0.004-0.06-0.008-0.088-0.01c-0.066-0.005-0.126-0.015-0.192-0.023
			c-0.492-0.057-0.971-0.113-1.435-0.174c-0.077-0.009-0.164-0.019-0.24-0.027c-0.038-0.007-0.074-0.013-0.113-0.018
			c-0.493-0.066-0.965-0.136-1.42-0.208c-0.035-0.005-0.072-0.011-0.105-0.018c-0.081-0.013-0.15-0.025-0.229-0.038
			c-0.294-0.049-0.58-0.099-0.854-0.151c-0.057-0.009-0.121-0.019-0.176-0.03c-0.062-0.011-0.115-0.025-0.175-0.037
			c-0.181-0.033-0.354-0.069-0.523-0.105c-0.064-0.015-0.137-0.026-0.201-0.041c-0.066-0.015-0.123-0.032-0.186-0.046
			c-0.114-0.025-0.226-0.051-0.332-0.077c-0.047-0.012-0.101-0.022-0.148-0.035c-0.158-0.038-0.312-0.081-0.457-0.122
			l-41.798-11.937c-0.021-0.004-0.04-0.011-0.06-0.019c-0.153-0.044-0.301-0.088-0.443-0.135c-0.044-0.015-0.084-0.032-0.128-0.046
			c-0.049-0.017-0.099-0.035-0.148-0.054c-0.046-0.016-0.097-0.032-0.141-0.049c-0.139-0.053-0.271-0.105-0.394-0.161
			c-0.132-0.056-0.256-0.115-0.372-0.175c-0.034-0.018-0.063-0.036-0.096-0.056c-0.042-0.022-0.084-0.045-0.125-0.069
			c-0.04-0.022-0.085-0.044-0.122-0.067c-0.062-0.037-0.114-0.076-0.17-0.113c-0.03-0.024-0.065-0.043-0.096-0.065
			c-0.013-0.011-0.028-0.02-0.044-0.029c-0.097-0.076-0.183-0.15-0.257-0.223c-0.003-0.003-0.008-0.007-0.011-0.01l0,0
			c-0.084-0.082-0.154-0.165-0.214-0.249c-0.007-0.008-0.008-0.015-0.013-0.022c-0.022-0.032-0.037-0.066-0.055-0.101
			c-0.029-0.05-0.063-0.103-0.084-0.152c-0.003-0.009-0.001-0.018-0.005-0.025c-0.017-0.05-0.023-0.102-0.033-0.148
			c-0.006-0.042-0.024-0.082-0.025-0.124c-0.001-0.012-0.001-0.026-0.001-0.04c-0.011-15.239-0.021-28.263-0.03-43.501
			C177.681,267.401,177.697,267.458,177.708,267.513z"/>
	</g>
	<g>
		<g>
			<path fill="#F6FAFD" d="M539.562,263.02c3.26,0.383,6.065,0.894,7.633,1.442l35.845,12.617c3.121,1.098,2.703,2.845-0.946,3.887
				l-41.799,11.937c-3.649,1.042-12.153,1.842-18.912,1.783l-77.667-0.676c-3.38-0.031-7.093-0.282-10.352-0.666
				c-3.26-0.38-6.065-0.891-7.626-1.438l-35.839-12.617c-3.135-1.1-2.719-2.846,0.934-3.889l41.798-11.936
				c3.65-1.043,12.153-1.843,18.926-1.784l77.66,0.677C532.591,262.387,536.303,262.639,539.562,263.02z"/>
		</g>
	</g>
	<g>
		<path fill="#55AE32" d="M507.417,210.614l20.695,32.363c0,0,17.688-6.397,10.913-11.665c-6.774-5.27-18.817-28.597-18.817-28.597
			L507.417,210.614z"/>
		<path fill="#403F56" d="M423.882,161.697l60.207,27.094l21.825,32.736l22.198-17.685c0,0-15.049-23.707-19.942-33.489
			c-4.893-9.785-60.958-24.46-60.958-24.46L423.882,161.697z"/>
		<path fill="#403F56" d="M536.017,231.687c0,0-1.508-0.374-0.438-3.949c1.068-3.58,9.469,5.832,9.469,5.832
			s19.942-0.752,20.696,7.902c0.753,8.654-18.816,13.925-24.084,11.287c-5.266-2.632-8.651,0-8.651,0
			c-13.173,3.763-19.568-2.257-19.568-2.257s4.515-15.426,6.022-18.435c1.502-3.014,6.771,1.503,6.771,1.503
			C529.245,238.838,536.017,231.687,536.017,231.687z"/>
		<path fill="#55AE32" d="M475.434,229.807c-0.376,3.01,1.128,27.467,1.128,27.467h-18.438l3.766-31.607
			C461.889,225.667,475.81,226.796,475.434,229.807z"/>
		<path fill="#F6B6B9" d="M465.648,156.053c0,0,4.893,17.31,10.913,16.182c6.02-1.132-4.139-16.182-4.139-16.182H465.648z"/>
		<path fill="#403F56" d="M432.162,151.541c0,0,34.24,8.653,50.419,16.18c16.184,7.524,3.767,65.85,3.767,65.85l-25.964-1.503
			l-3.767-38.383c0,0-9.029-4.893-38.756-10.911c-29.728-6.021-22.203-28.224-22.203-28.224L432.162,151.541z"/>
		<path fill="#403F56" d="M458.967,250.194c0,0-7.995,13.102-8.368,16.112c-0.377,3.011,9.785,7.152,9.785,7.152
			c4.892-0.754,4.138,3.386,4.138,3.386l5.643,4.139c0,0,10.916,3.007,24.837-0.756c13.923-3.76-6.021-18.06-6.021-18.06
			l-13.212-19.244c-6.057-0.802-9.366,6.827-9.366,6.827c-0.754,0-6.019,2.633-6.019,2.633L458.967,250.194z"/>
		<path fill="#F6B6B9" d="M448.527,66.312c0,8.312,6.741,15.051,15.053,15.051c8.312,0,15.053-6.739,15.053-15.051
			c0-8.317-6.74-15.054-15.053-15.054C455.269,51.257,448.527,57.995,448.527,66.312z"/>
		<path fill="#F6B6B9" d="M459.251,77.41c-4.514,1.503-11.663,13.167-11.663,13.167s-15.054-18.438-12.417-18.814
			c2.633-0.373,16.18-10.158,16.18-10.158S463.77,75.904,459.251,77.41z"/>
		<path fill="#D0CDE1" d="M450.599,139.499l15.05,21.769c0.754-4.195,10.913-0.699,10.913-0.699l-9.406-21.447l-12.836-44.632l0,0
			L450.599,139.499z"/>
		<path fill="#55AE32" d="M450.599,139.499l15.05,21.769c0.754-4.195,10.913-0.699,10.913-0.699l-9.406-21.447l-12.836-44.632l0,0
			L450.599,139.499z"/>
		<path fill="#302F42" d="M453.675,56.761c-0.603,1.242-0.706,1.756-1.817,2.831c-0.356,0.342-3.198,2.482-3.115,2.81
			c-0.861-3.398-0.08-7.051,1.501-10.181c1.582-3.128,3.917-5.806,6.318-8.363c0.965-1.179,2.17-2.139,3.531-2.822
			c1.208-0.428,2.477-0.65,3.758-0.654c4.472-0.266,9.489-0.346,12.76,2.714c1.559,1.458,2.725,3.627,4.816,4.061
			c0.462,0.038,0.911,0.159,1.33,0.354c0.906,0.581,0.68,1.921,0.717,3c0.089,2.406,2.021,4.374,2.486,6.739
			c0.434,2.196-0.452,4.423-1.312,6.492c-0.727,1.73-1.545,3.573-3.157,4.542c-0.01,0.007-0.016,0.011-0.025,0.014
			c-2.255,1.205-5.06,0.355-6.267-1.9l-2.393-0.632c-0.836-1.697,0.613-4.236-0.868-5.416c-0.616-0.49-1.499-0.469-2.189-0.842
			c-1.475-0.791-1.519-2.853-1.362-4.521l-8.191-1.02C457.026,53.569,455.075,53.872,453.675,56.761z"/>
		<path fill="#55AE32" d="M451.812,84.444l3.14,12.583c0,0,3.171,54.513-2.094,54.513c-5.271,0-35.372,6.394-35.372,6.394
			c-25.213-4.516-22.954,6.396-22.954,6.396s8.968-41.459,11.602-66.67c2.634-25.211,22.639-31.163,26.028-31.163
			c3.386,0,9.027,7.526,9.027,7.526C447.966,91.707,451.812,84.444,451.812,84.444z"/>
		<path fill="#D0CDE1" d="M455.588,128.727v34.237c0,1.75,1.418,3.17,3.17,3.17h34.234c1.754,0,3.174-1.419,3.174-3.17v-34.237
			c0-1.751-1.42-3.171-3.174-3.171h-34.234C457.006,125.556,455.588,126.976,455.588,128.727z"/>
		<polygon opacity="0.1" fill="#010202" enable-background="new    " points="438.744,126.517 453.979,148.404 437.239,128.771 
			436.11,102.434 		"/>
		<polygon opacity="0.1" fill="#010202" enable-background="new    " points="418.052,141.566 436.11,153.982 419.18,140.061 
			406.009,109.583 		"/>
		<path fill="#F6B6B9" d="M455.165,154.979c0,0,10.834,14.355,16.037,11.123c5.199-3.234-9.726-13.579-9.726-13.579L455.165,154.979
			z"/>
		<path fill="#55AE32" d="M437.054,126.704l13.545,19.942c0,0,5.266,3.01,8.652,3.764c3.388,0.754,2.638,7.903,2.638,7.903
			l-2.638,2.256l-22.876-6.447l-17.009-15.375c0,0-6.066-13-11.458-26.834c-1.713-4.397,9.202-36.008,9.202-36.008
			C436.675,77.033,437.054,126.704,437.054,126.704z"/>
	</g>
	<g>
		<path fill="#302F42" d="M226.515,114.4c6.133,2.487,9.088,9.482,6.598,15.617c-2.487,6.133-9.48,9.088-15.615,6.599
			s-9.09-9.481-6.602-15.614C213.388,114.868,220.38,111.91,226.515,114.4z"/>
		<polygon fill="#F7BEBE" points="248.888,174.824 245.499,167.116 232.848,166.047 228.65,179.493 252.185,187.794 
			249.002,175.273 		"/>
		<circle fill="#F7BEBE" cx="243.986" cy="151.787" r="19.381"/>
		<path fill="#403F56" d="M338.788,238.152c0,0,6.674,46.866,9.614,54.689c1.362,3.816,2.945,7.55,4.746,11.175
			c0,0-5.793,7.187-9.604,5.301c-2.186-1.047-4.164-2.48-5.838-4.229c0,0,0.091-5.265-2.161-8.503
			c-2.248-3.235-17.271-37.984-13.497-45.605C325.824,243.352,338.788,238.152,338.788,238.152z"/>
		<path fill="#403F56" d="M238.257,260.374c0,0,16.115,27.798,55.044,23.619l3.579-0.909c0,0-8.894,8.574-10.475,11.232
			c-1.835,3.085-21.756,17.437-24.105,17.558c-2.349,0.12-3.131,0.795-3.131,0.795l4.64,12.626l4.023-1.02
			c0,0,19.034-12.219,23.84-13.917c4.808-1.698,34.756-27.166,34.756-27.166s11.381-9.563-4.32-16.997
			c-15.697-7.436-24.868-6.058-24.868-6.058l-30.359-7.04L238.257,260.374z"/>
		<path fill="#403F56" d="M354.147,302.333l8.556,13.062c0,0,13.25,10.916,2.617,10.284c-10.636-0.628-35.741-9.48-34.529-14.076
			c1.214-4.595,5.532-10.851,6.612-9.97C338.478,302.506,346.115,308.184,354.147,302.333z"/>
		<path fill="#403F56" d="M270.033,321.873l-2.706,12.987c0,0,1.401,14.516-4.607,7.748c-6.012-6.769-15.773-27.166-12.285-29.197
			c3.488-2.029,9.841-3.191,9.96-2.019C260.515,312.563,261.691,320.562,270.033,321.873z"/>
		<path fill="#7D5BA2" d="M269.252,258.683c0,0-23.568,12.181-31.434,3.707c-7.869-8.477-26.268-77.125-17.795-84.988
			c8.475-7.87,9.156-5.184,9.156-5.184l19.738,10.215l-2.062-11.853c0,0,3.578-0.913,5.051,3.001
			c1.469,3.909,9.121,15.294,8.723,26.823c-0.402,11.533,10.58,15.406,10.58,15.406L269.252,258.683z"/>
		<polygon fill="#403E56" points="349.448,246.395 309.79,264.567 302.751,210.647 337.931,191.71 		"/>
		<polygon fill="#E6EEF4" points="347.486,245.223 311.959,260.919 305.442,211.87 336.878,194.118 		"/>
		<polygon fill="#B4B4B4" points="308.887,262.894 309.79,264.567 308.229,265.917 264.788,261.72 264.96,260.246 267.461,259.143 
					"/>
		<polygon fill="#D0CDE1" points="310.239,264.457 265.006,260.715 259.302,204.554 302.751,210.647 		"/>
		<polygon fill="#403E56" points="309.761,256.958 307.525,257.528 301.88,216.583 304.229,216.464 		"/>
		<polygon fill="#403E56" points="305.062,257.201 286.028,255.371 280.603,213.422 298.969,216.375 		"/>
		<path fill="#F7BEBE" d="M267.502,212.468l3.919,0.432c0,0,20.507,5.738,18.293,12.017c-2.215,6.273-23.863-5.84-23.863-5.84
			l-1.366-5.366L267.502,212.468z"/>
		<path fill="#F7BEBE" d="M273.46,247.141l5.708-0.029c0,0,17.457-0.625,14.972-6.66c-2.486-6.034-18.595-3.842-18.595-3.842
			l-3.464,1.355L273.46,247.141z"/>
		<path fill="#7D5BA2" d="M272.97,235.835c0,0,4.741,11.174,2.173,12.306c-2.572,1.129-42.251,13.595-46.437,2.758
			c-4.185-10.84-24.093-64.821-8.752-62.531c15.345,2.288,15.829,11.688,15.829,11.688l5.636,39.042L272.97,235.835z"/>
		<polygon fill="#7D5BA2" points="258.903,202.037 270.188,211.783 266.139,221.147 252.904,214.037 		"/>
		<polygon opacity="0.2" fill="#010202" enable-background="new    " points="258.922,235.835 241.474,238.368 235.418,207.056 
			242.685,233.772 		"/>
		<circle fill="#302F42" cx="238.214" cy="143.384" r="23.072"/>
		<polygon fill="#FFFFFF" points="332.809,241.814 326.73,213.838 336.263,208.558 342.675,237.403 		"/>
		<polygon fill="#FFFFFF" points="328.817,250.445 319.473,208.063 321.146,207.162 330.354,249.581 		"/>
		<polygon fill="#FFFFFF" points="324.572,252.478 315.229,210.098 316.904,209.196 326.109,251.612 		"/>
		<polygon fill="#FFFFFF" points="321.106,253.837 311.766,211.454 313.438,210.553 322.646,252.968 		"/>
		<path fill="#302F42" d="M253.475,132.95l6.614,2.683c6.975,2.831,10.331,10.78,7.501,17.752l0,0l0,0l0,0l-19.239-7.809l0,0
			L253.475,132.95L253.475,132.95z"/>
	</g>
</g>
</svg>
