<svg class="prefix__animated" id="prefix__freepik_stories-data-points" xmlns="http://www.w3.org/2000/svg" viewBox="0 0 500 500" version="1.1"><style>@keyframes fadeIn{0%{opacity:0}to{opacity:1}}@keyframes zoomIn{0%{opacity:0;transform:scale(.5)}to{opacity:1;transform:scale(1)}}@keyframes slideLeft{0%{opacity:0;transform:translateX(-30px)}to{opacity:1;transform:translateX(0)}}@keyframes slideUp{0%{opacity:0;transform:translateY(30px)}to{opacity:1;transform:inherit}}svg#prefix__freepik_stories-data-points:not(.prefix__animated) .prefix__animable{opacity:0}</style><g id="prefix__freepik--background-simple--inject-151" style="transform-origin:260.614px 243.395px 0;animation:1s 1 forwards cubic-bezier(.36,-.01,.5,1.38) fadeIn;animation-delay:0s" class="prefix__animable"><path d="M37.62 176.94S56.87 95.58 132.73 56s166.33-22.74 240-11.1 120.53 68 115.52 135.61-64.42 74-109.78 141.79-47.71 93-120.78 124.16-166.91-20.11-203-111-17.07-158.52-17.07-158.52z" style="transform-origin:260.614px 243.395px 0" id="prefix__eldqt2jw1rzqd" class="prefix__animable" fill="#51baa7"/><g id="prefix__elsaqgt1ygrqp"><path d="M37.62 176.94S56.87 95.58 132.73 56s166.33-22.74 240-11.1 120.53 68 115.52 135.61-64.42 74-109.78 141.79-47.71 93-120.78 124.16-166.91-20.11-203-111-17.07-158.52-17.07-158.52z" style="transform-origin:260.614px 243.395px 0" class="prefix__animable" id="prefix__eljid1m8yoi27" fill="#fff" opacity=".8"/></g></g><g id="prefix__freepik--Plant--inject-151" style="transform-origin:398.487px 386.43px 0;animation:1s 1 forwards cubic-bezier(.36,-.01,.5,1.38) zoomIn;animation-delay:0s" class="prefix__animable"><path d="M360.26 295.58s1.86 3.52.21 6.84-3.73 6.63-2.49 8.29 5 3.73 4.56 7.25-5.39 10.57-2.28 14.5 8.29 3.73 8.49 8.08-5 7.88-3.52 11.82 9.95 4.76 9.95 7.46-3.32 5.59-.62 8.49 15.72 10.47 17.59 7.36 5.62-11.71 3.15-23.92c-.42-2.05-3.34-2.5-3.75-5.4s.83-8.08-1.24-11-8.71-3.93-9.12-6.21 2.48-7.88-.42-11.4-9.74-5.18-9.74-7.46 2.08-5.18-.82-8.29-9.95-6.41-9.95-6.41z" style="transform-origin:376.86px 335.993px 0" id="prefix__elha93qtm3c5v" class="prefix__animable" fill="#51baa7"/><path d="M370.18 320c4.32 13 11.88 30.67 14.95 39.19 3.72 10.37 7 17.87 8.62 28.23s2.56 79.75 2.56 79.75" style="transform-origin:383.245px 393.585px 0" id="prefix__el81re4yaauzf" class="prefix__animable" fill="none" stroke="#263238" stroke-linecap="round" stroke-linejoin="round"/><path d="M361.3 296.82s3.52 2.9 6.63 15.54c.2.82.43 1.68.68 2.58" style="transform-origin:364.955px 305.88px 0" id="prefix__elw2y172fz0pj" class="prefix__animable" fill="none" stroke="#263238" stroke-linecap="round" stroke-linejoin="round"/><path d="M425 319.19a6.52 6.52 0 00-.16 5.47c1.32 2.65 3 5.31 2 6.63s-4 3-3.65 5.81 4.31 8.45 1.82 11.61-6.63 3-6.8 6.46 4 6.3 2.82 9.46-8 3.81-8 6 2.66 4.47.5 6.79-12.59 8.38-14.08 5.9-4.45-9.41-2.45-19.18c.33-1.64 2.67-2 3-4.32s-.66-6.47 1-8.79 7-3.15 7.29-5-2-6.3.33-9.12 7.8-4.14 7.8-6-1.66-4.14.66-6.63 7.92-5.09 7.92-5.09z" style="transform-origin:411.736px 351.548px 0" id="prefix__elgk2w1nj0q9i" class="prefix__animable" fill="#51baa7"/><path d="M417.09 338.73c-3.45 10.42-9.5 24.55-12 31.37-3 8.29-5.58 14.29-6.9 22.58s-2.05 63.83-2.05 63.83" style="transform-origin:406.615px 397.62px 0" id="prefix__elqxsm986tjsq" class="prefix__animable" fill="none" stroke="#263238" stroke-linecap="round" stroke-linejoin="round"/><path d="M424.2 320.18s-2.82 2.32-5.3 12.44c-.16.65-.35 1.34-.55 2.06" style="transform-origin:421.275px 327.43px 0" id="prefix__el3k0mo13xxkt" class="prefix__animable" fill="none" stroke="#263238" stroke-linecap="round" stroke-linejoin="round"/><path d="M368 366.14a5.49 5.49 0 01.14 4.57c-1.11 2.22-2.5 4.44-1.67 5.55s3.33 2.49 3 4.85-3.6 7.06-1.52 9.69 5.54 2.5 5.68 5.41-3.33 5.26-2.36 7.9 6.65 3.18 6.65 5-2.21 3.74-.41 5.68 10.51 7 11.76 4.93 3.75-7.84 2.1-16c-.27-1.37-2.22-1.67-2.5-3.61s.55-5.41-.83-7.35-5.82-2.63-6.1-4.15 1.66-5.27-.28-7.62-6.51-3.47-6.51-5 1.39-3.46-.55-5.54-6.6-4.31-6.6-4.31z" style="transform-origin:379.067px 393.174px 0" id="prefix__elpldvheeedc" class="prefix__animable" fill="#51baa7"/><path d="M374.64 382.47c2.89 8.71 7.94 20.51 10 26.21 2.5 6.93 4.67 11.94 5.77 18.87s1.71 32.64 1.71 32.64" style="transform-origin:383.38px 421.33px 0" id="prefix__elfyxmvki2dnt" class="prefix__animable" fill="none" stroke="#263238" stroke-linecap="round" stroke-linejoin="round"/><path d="M368.7 367s2.36 1.94 4.43 10.4c.14.54.29 1.12.46 1.72" style="transform-origin:371.145px 373.06px 0" id="prefix__elisbrzb5stqh" class="prefix__animable" fill="none" stroke="#263238" stroke-linecap="round" stroke-linejoin="round"/><path d="M439.37 362.69a5.47 5.47 0 00-1.18 4.42c.57 2.41 1.42 4.89.35 5.78s-3.8 1.66-4.07 4 1.89 7.7-.74 9.79-6 1.16-6.77 4 2 5.89.49 8.23-7.2 1.58-7.62 3.33 1.31 4.15-.89 5.62-11.84 4.41-12.58 2.1-1.86-8.48 1.61-16.05c.59-1.27 2.56-1.12 3.27-2.94s.7-5.39 2.49-7 6.27-1.23 6.89-2.65-.42-5.51 2-7.36 7.13-1.88 7.48-3.36-.56-3.69 1.81-5.27 7.46-2.64 7.46-2.64z" style="transform-origin:422.475px 386.753px 0" id="prefix__elo09rhcrbmj" class="prefix__animable" fill="#51baa7"/><path d="M429.18 377.07c-4.8 7.82-12.42 18.14-15.73 23.22-4 6.18-8.82 10.12-9.93 17S401.81 450 401.81 450" style="transform-origin:415.495px 413.535px 0" id="prefix__elrpn0l06stp" class="prefix__animable" fill="none" stroke="#263238" stroke-linecap="round" stroke-linejoin="round"/><path d="M438.51 363.34s-2.74 1.35-6.69 9.1c-.26.5-.54 1-.85 1.58" style="transform-origin:434.74px 368.68px 0" id="prefix__eld69bi66sxqm" class="prefix__animable" fill="none" stroke="#263238" stroke-linecap="round" stroke-linejoin="round"/><path d="M390.16 475h15.41c8.11-4.19 13.87-14.77 13.87-27.17A34.6 34.6 0 00413 427h-30.23a34.6 34.6 0 00-6.48 20.78c0 12.43 5.76 23.01 13.87 27.22z" style="transform-origin:397.866px 451px 0" id="prefix__el2oy8dbhn5ua" class="prefix__animable" fill="#263238" stroke="#263238" stroke-linecap="round" stroke-linejoin="round"/><path style="transform-origin:398.005px 476.13px 0" id="prefix__el8pkwzuk5nu7" class="prefix__animable" fill="#263238" stroke="#263238" stroke-linecap="round" stroke-linejoin="round" d="M390.16 474.98h15.69v2.3h-15.69z"/></g><g id="prefix__freepik--Character--inject-151" style="transform-origin:230.528px 294.397px 0;animation:1s 1 forwards cubic-bezier(.36,-.01,.5,1.38) slideLeft;animation-delay:0s" class="prefix__animable"><path d="M250.46 112.63s-10.69 1.62-15.83 10.94c-3.62 6.54 1.43 18.72-3.17 22.17s-6.91.87-8.64 6 3.17 8.07 1.73 10.37-3.46 2.88-3.46 6.91 7.49 7.2 10.08 6.62 6.05-4.32 7.77-3.74 3.17 4.32 8.93 3.74 7.2-3.45 10.66-2 5.76 3.45 9.79 2.59 7.48-4.61 8.92-4 9.22 5.18 15.27 4.32 6.33-6.63 5.18-11.81 1.15-6.33.86-10.94-7.2-8.07-10.94-9.79-2.31-13-6.06-21.61-20.43-13.23-31.09-9.77z" style="transform-origin:259.833px 144.066px 0" id="prefix__elf6dz0vw40x" class="prefix__animable" fill="#263238" stroke="#263238" stroke-linecap="round" stroke-linejoin="round"/><path d="M227.8 415.86s4 35.77 4 36.58-.81 9.15-2.15 12.64a17.76 17.76 0 01-4.57 7.26c-2.16 2.16-3.5 3.77-1.89 4.58s18 0 18 0a43 43 0 011.08-7 23 23 0 011.88-4.84l.32 11.82h1.35s.48-12.36 1-14a30.35 30.35 0 001.62-8.07c0-2.69-3.5-6.72-3.5-6.72l2.72-32z" style="transform-origin:235.46px 446.57px 0" id="prefix__el2bvoa17ykyq" class="prefix__animable" fill="#fff" stroke="#263238" stroke-linecap="round" stroke-linejoin="round"/><path d="M228.52 422.3h18.66l.52-6.17-19.9-.27s.29 2.62.72 6.44z" style="transform-origin:237.75px 419.08px 0" id="prefix__elvwr07tmzddb" class="prefix__animable" fill="#263238"/><path d="M242.83 457.55c-2.15 5.65-2.69 11.57-4.84 13.18s-10.76-.27-10.76-.27l-.4-.08a21.53 21.53 0 01-1.75 2c-2.16 2.16-3.5 3.77-1.89 4.58s18 0 18 0a43 43 0 011.08-7 23 23 0 011.88-4.84l.32 11.82h1.35s.48-12.36 1-14a30.35 30.35 0 001.62-8.07c0-1.64-1.31-3.79-2.33-5.21-.7 2.52-1.94 4.34-3.28 7.89z" style="transform-origin:235.46px 463.49px 0" id="prefix__elz0dfhlm5fue" class="prefix__animable" fill="#263238" stroke="#263238" stroke-linecap="round" stroke-linejoin="round"/><path d="M278.64 415.86S276 451.63 276 452.44s.81 9.15 2.15 12.64a17.76 17.76 0 004.57 7.26c2.16 2.16 3.5 3.77 1.89 4.58s-18 0-18 0a43 43 0 00-1.08-7 23 23 0 00-1.88-4.84l-.32 11.82h-1.34s-.49-12.36-1-14a30.38 30.38 0 01-1.61-8.07c0-2.69 3.49-6.72 3.49-6.72l-4-32z" style="transform-origin:272.095px 446.57px 0" id="prefix__elvgh164t0ep" class="prefix__animable" fill="#fff" stroke="#263238" stroke-linecap="round" stroke-linejoin="round"/><path d="M278.64 415.86l-19.9.27.78 6.17h18.64c.29-3.82.48-6.44.48-6.44z" style="transform-origin:268.69px 419.08px 0" id="prefix__elc2q5yhie6r" class="prefix__animable" fill="#263238"/><path d="M264.93 457.55c2.15 5.65 2.69 11.57 4.84 13.18s10.76-.27 10.76-.27l.4-.08a21.53 21.53 0 001.75 2c2.16 2.16 3.5 3.77 1.89 4.58s-18 0-18 0a43 43 0 00-1.08-7 23 23 0 00-1.88-4.84l-.32 11.82h-1.34s-.49-12.36-1-14a30.38 30.38 0 01-1.61-8.07c0-1.64 1.3-3.79 2.32-5.21.69 2.52 1.93 4.34 3.27 7.89z" style="transform-origin:272.31px 463.49px 0" id="prefix__eley8663o2xkh" class="prefix__animable" fill="#263238" stroke="#263238" stroke-linecap="round" stroke-linejoin="round"/><path d="M209.46 284.28s-1.21 25.69-.23 42.87 3.88 91.72 3.88 91.72l35.33 1 1.3-89.78 4.54 89.45 41.16-.32s-3.56-74.22-3.56-93.67 2.59-30.79 2.26-40.19-13-16.86-35.65-19.45-41.49 7.13-45.05 11-3.98 7.37-3.98 7.37z" style="transform-origin:252.144px 342.674px 0" id="prefix__elm9bqjlekrh" class="prefix__animable" fill="#fff"/><path d="M283.07 272.21c-.59-.29-1.2-.57-1.84-.85v148h1.84z" style="transform-origin:282.15px 345.36px 0" id="prefix__elcqwiqu55ire" class="prefix__animable" fill="#cfcfcf"/><path d="M285.21 273.35l-.93-.51v146.45h.93z" style="transform-origin:284.745px 346.065px 0" id="prefix__elt7c2ns1pt4" class="prefix__animable" fill="#cfcfcf"/><path d="M251 267.24a.92.92 0 00-.92.92v69.32l1.92 36.31V268.16a.92.92 0 00-1-.92z" style="transform-origin:251.04px 320.513px 0" id="prefix__el6we60tiwr0e" class="prefix__animable" fill="#cfcfcf"/><path d="M253.63 267.7a.45.45 0 00-.46.46v129.5l.92 18.15V268.16a.46.46 0 00-.46-.46z" style="transform-origin:253.63px 341.755px 0" id="prefix__elz0xalat8l1" class="prefix__animable" fill="#cfcfcf"/><path d="M264.79 419.44V268.16a.47.47 0 00-.93 0v151.29z" style="transform-origin:264.325px 343.604px 0" id="prefix__el3590jqfqbq2" class="prefix__animable" fill="#cfcfcf"/><path d="M269.65 268.16a.46.46 0 00-.46-.46.45.45 0 00-.46.46v151.25h.92z" style="transform-origin:269.19px 343.555px 0" id="prefix__elx4omh5xjwls" class="prefix__animable" fill="#cfcfcf"/><path d="M267.52 268.16a.93.93 0 00-1.85 0v151.27h1.85z" style="transform-origin:266.595px 343.378px 0" id="prefix__elqqpku8zeatk" class="prefix__animable" fill="#cfcfcf"/><path d="M280.34 271l-.92-.37v148.7h.92z" style="transform-origin:279.88px 344.98px 0" id="prefix__elc1e9z8tb39e" class="prefix__animable" fill="#cfcfcf"/><path d="M220.84 272.14c-.65.31-1.26.62-1.84.93V419h1.84z" style="transform-origin:219.92px 345.57px 0" id="prefix__elt7xexy9mzf" class="prefix__animable" fill="#cfcfcf"/><path d="M217.19 419h.92V273.56l-.92.54z" style="transform-origin:217.65px 346.28px 0" id="prefix__elh87rb6l1dzw" class="prefix__animable" fill="#cfcfcf"/><path d="M248.77 267.7a.45.45 0 00-.46.46v151.68h.13l.79-54.34v-97.34a.46.46 0 00-.46-.46z" style="transform-origin:248.77px 343.77px 0" id="prefix__el54kxjm7bp24" class="prefix__animable" fill="#cfcfcf"/><path d="M223 271.16l-.92.41v147.55h.92z" style="transform-origin:222.54px 345.14px 0" id="prefix__el8xpvrtw1oiv" class="prefix__animable" fill="#cfcfcf"/><path d="M235.48 267.24a.92.92 0 00-.92.92v151.3l1.84.06V268.16a.92.92 0 00-.92-.92z" style="transform-origin:235.48px 343.38px 0" id="prefix__elfhicdtkforj" class="prefix__animable" fill="#cfcfcf"/><path d="M232.75 268.16v151.25h.92V268.16a.46.46 0 00-.46-.46h-.19a.44.44 0 00-.27.46z" style="transform-origin:233.208px 343.555px 0" id="prefix__eln8axhce70za" class="prefix__animable" fill="#cfcfcf"/><path d="M238.07 267.7a.46.46 0 00-.46.46v151.39h.92V268.16a.45.45 0 00-.46-.46z" style="transform-origin:238.07px 343.625px 0" id="prefix__elhybfektnys" class="prefix__animable" fill="#cfcfcf"/><path d="M209.46 284.28s-1.21 25.69-.23 42.87 3.88 91.72 3.88 91.72l35.33 1 1.3-89.78 4.54 89.45 41.16-.32s-3.56-74.22-3.56-93.67 2.59-30.79 2.26-40.19-13-16.86-35.65-19.45-41.49 7.13-45.05 11-3.98 7.37-3.98 7.37z" style="transform-origin:252.144px 342.674px 0" id="prefix__elp8qkhq9lkrc" class="prefix__animable" fill="none" stroke="#263238" stroke-miterlimit="10"/><path d="M248.61 274.39s-4.8 12.81-4 14.81 5.2 2.4 5.2 2.4l1.6-16.81s4 15.21 6 14.81 4-1.6 3.2-4.81-11.61-12.4-11.61-12.4z" style="transform-origin:252.655px 281.995px 0" id="prefix__elii6p5xoa02e" class="prefix__animable" fill="#263238" stroke="#263238" stroke-linecap="round" stroke-linejoin="round"/><path d="M254.29 126.83s-16.68 10.83-17.29 13.43.44 12.34 1.52 16.24 5.2 10.83 6.93 12.13 3.47 9.31 1.08 11.7-5.19 2.38-9.31.86-7.8-3.68-10.83-3.46-26.64 6.28-31 7.14-7.58 1.3-8.44 1.52-4.77-.87-5.64-.43-1.73-1.52-4.76-3.9-5.2-4.33-5.2-4.33L160.73 187l1.73 3.46s-.43 6.07 1.52 9.32 5.41 5.84 8.88 11S180 223 187.15 223s16.24-7.8 22.53-10.83 11.91-6.06 11.91-6.06-6.28 39.85-10 47.21-11.91 16.46-10 21 4.55 10 7.8 10 38.33-10.61 44.83-10.61 35.73 12.56 39 14.29c0 0-.65 3.47 1.3 3.47s5-2.82 6.28-6.93-4.76-15.6-5.41-23.18-4.12-34-4.12-34 9.53 26.42 10.83 30.54 7.58 9.31 13 8.45 14.07-5.64 11.69-17.55-13.79-29.27-17.06-35.99-10-21-14.94-26-9.1-4.76-15.81-4.76-13-.87-13.65-3-.43-12.56-.43-12.56l4.55-9.32s3 1.09 4.11-1.51a17.58 17.58 0 001.09-5.85s-3.47-1.73-11.7-9.75-8.66-13.23-8.66-13.23z" style="transform-origin:243.963px 209.15px 0" id="prefix__elzuv0stn73" class="prefix__animable" fill="#fff" stroke="#263238" stroke-linecap="round" stroke-linejoin="round"/><path d="M245.41 168.63s4.07 4.05 8.23 2.17a65.07 65.07 0 006.06-3.25s-4.52 7.45-12.1 7.45z" style="transform-origin:252.555px 171.275px 0" id="prefix__elkkqdrt81jiq" class="prefix__animable" fill="#263238" stroke="#263238" stroke-linecap="round" stroke-linejoin="round"/><path d="M248.88 147.47a5.87 5.87 0 01-2.17 3c-1.52.86 0 3 1.52 3.25a4.26 4.26 0 002.59-.44" style="transform-origin:248.45px 150.617px 0" id="prefix__el9l4kwxa8zzj" class="prefix__animable" fill="none" stroke="#263238" stroke-linecap="round" stroke-linejoin="round"/><path d="M247.79 157.87s3.68 1.73 8-2" style="transform-origin:251.79px 157.07px 0" id="prefix__eljslpq0wh7n" class="prefix__animable" fill="none" stroke="#263238" stroke-linecap="round" stroke-linejoin="round"/><path d="M245.25 145.5c0 1.17-.47 2.12-1.06 2.12s-1.06-1-1.06-2.12.47-2.13 1.06-2.13 1.06.95 1.06 2.13z" style="transform-origin:244.19px 145.495px 0" id="prefix__el4ooz8yed354" class="prefix__animable" fill="#263238"/><path d="M256.93 145.5c0 1.17-.47 2.12-1.06 2.12s-1.06-1-1.06-2.12.48-2.13 1.06-2.13 1.06.95 1.06 2.13z" style="transform-origin:255.87px 145.495px 0" id="prefix__el4wq0m0htxf" class="prefix__animable" fill="#263238"/><path d="M245.9 148.53h-8.45a1 1 0 01-1-.83l-.94-4.6a1 1 0 011-1.24h10.23a1 1 0 011 1.22l-.83 4.6a1.05 1.05 0 01-1.01.85z" style="transform-origin:241.623px 145.195px 0" id="prefix__elf8w1xpd8c6d" class="prefix__animable" fill="none" stroke="#263238" stroke-linecap="round" stroke-linejoin="round"/><path d="M262.73 148.53h-9.42a1.14 1.14 0 01-1.14-.83l-1-4.6a1.08 1.08 0 011.14-1.24h11.4a1.07 1.07 0 011.14 1.22l-.93 4.6a1.13 1.13 0 01-1.19.85z" style="transform-origin:258.009px 145.195px 0" id="prefix__elqnpt2aef2w" class="prefix__animable" fill="none" stroke="#263238" stroke-linecap="round" stroke-linejoin="round"/><path style="transform-origin:249.745px 142.01px 0" id="prefix__eladcrtbsbhwq" class="prefix__animable" fill="none" stroke="#263238" stroke-linecap="round" stroke-linejoin="round" d="M247.23 142.01h5.03"/><path style="transform-origin:249.425px 144.28px 0" id="prefix__ele4d4sjnocno" class="prefix__animable" fill="none" stroke="#263238" stroke-linecap="round" stroke-linejoin="round" d="M247.68 144.28h3.49"/><path d="M241.61 140.64a3.89 3.89 0 015.46-1.06" style="transform-origin:244.34px 139.765px 0" id="prefix__el0rjt7u86wpt" class="prefix__animable" fill="none" stroke="#263238" stroke-linecap="round" stroke-linejoin="round"/><path d="M252.38 139.58s2.69-2.78 6.75.31" style="transform-origin:255.755px 139.161px 0" id="prefix__el55fsx2q492v" class="prefix__animable" fill="none" stroke="#263238" stroke-linecap="round" stroke-linejoin="round"/><path d="M309.73 212.81c-3.25-6.71-10-21-14.94-26s-9.1-4.76-15.81-4.76-13-.87-13.65-3a24.28 24.28 0 01-.4-4.47 41.68 41.68 0 01-17.33.45c.19 2.16-.07 4.27-1.11 5.32-2.38 2.38-5.19 2.38-9.31.86s-7.8-3.68-10.83-3.46-26.64 6.28-31 7.14-7.58 1.3-8.44 1.52-4.77-.87-5.64-.43-1.73-1.52-4.76-3.9-5.2-4.33-5.2-4.33L160.73 187l1.73 3.46s-.43 6.07 1.52 9.32 5.41 5.84 8.88 11S180 223 187.15 223s16.24-7.8 22.53-10.83 11.91-6.06 11.91-6.06-6.28 39.85-10 47.21-11.91 16.46-10 21 4.55 10 7.8 10 38.33-10.61 44.83-10.61 35.73 12.56 39 14.29c0 0-.65 3.47 1.3 3.47s5-2.82 6.28-6.93-4.76-15.6-5.41-23.18-4.12-34-4.12-34 9.53 26.42 10.83 30.54 7.58 9.31 13 8.45 14.07-5.64 11.69-17.55-13.79-29.27-17.06-35.99z" style="transform-origin:243.963px 233.025px 0" id="prefix__el61d8nxe5z2" class="prefix__animable" fill="#263238" stroke="#263238" stroke-linecap="round" stroke-linejoin="round"/><path style="transform-origin:287.905px 212.435px 0" id="prefix__elb8dg8o7pa3l" class="prefix__animable" fill="none" stroke="gray" stroke-linecap="round" stroke-linejoin="round" d="M290.55 223.95l-5.29-23.03"/><path d="M186.17 187.93s2.4 6 2 16.81" style="transform-origin:187.192px 196.335px 0" id="prefix__elqh2an6dclqd" class="prefix__animable" fill="none" stroke="gray" stroke-linecap="round" stroke-linejoin="round"/><path d="M183 187.13s2.4 9.61.8 16.81" style="transform-origin:183.675px 195.535px 0" id="prefix__el57wm0go1ebh" class="prefix__animable" fill="none" stroke="gray" stroke-linecap="round" stroke-linejoin="round"/><path d="M306.65 242.37s6-4.81 13.6 0" style="transform-origin:313.45px 241.301px 0" id="prefix__elj494wxnd0gq" class="prefix__animable" fill="none" stroke="gray" stroke-linecap="round" stroke-linejoin="round"/><path style="transform-origin:218.29px 199.82px 0" id="prefix__ell80lj5v1nma" class="prefix__animable" fill="none" stroke="gray" stroke-linecap="round" stroke-linejoin="round" d="M219.79 193.54l1.8 12.56-6.6-11.76"/><path d="M251 272.79s-16.41-2.41-18.41-2" style="transform-origin:241.795px 271.767px 0" id="prefix__elfxsmni6j51n" class="prefix__animable" fill="none" stroke="gray" stroke-linecap="round" stroke-linejoin="round"/><path d="M302 242.84s13.16 1.94 15.54 2.8 2.59 10.15 0 13.39-5.61 1.94-9.5.43-11.22-9.07-11.22-9.07z" style="transform-origin:308.112px 251.94px 0" id="prefix__el429jue2c2dv" class="prefix__animable" fill="#fff" stroke="#263238" stroke-linecap="round" stroke-linejoin="round"/><path style="transform-origin:299.2px 237.98px 0" id="prefix__elrbi2a4jk6m" class="prefix__animable" fill="#fff" stroke="#263238" stroke-linecap="round" stroke-linejoin="round" d="M303.3 240.47l-7.12-6.7-1.08 4.75 2.59 3.67 5.61-1.72z"/><path d="M275.38 224.22l-8.75 32.7a1.31 1.31 0 001.28 1.66l22.33-.19a1.34 1.34 0 001.26-.94l9.38-31a2.45 2.45 0 00-2.24-3.15l-20.79-.86a2.45 2.45 0 00-2.47 1.78z" style="transform-origin:283.783px 240.509px 0" id="prefix__elxh3b1b8hf8a" class="prefix__animable" fill="#fff" stroke="#263238" stroke-linecap="round" stroke-linejoin="round"/><path d="M301 239.89s-13.94 1.29-16.68 1.93-2 2.79-.4 4.73 7.07 6 9.62 7.52 5.1 1.72 6.47-.43 3.93-12.25 3.34-13.11-2.35-.64-2.35-.64z" style="transform-origin:292.963px 247.549px 0" id="prefix__el2ytngyj0zy1" class="prefix__animable" fill="#fff" stroke="#263238" stroke-linecap="round" stroke-linejoin="round"/><path style="transform-origin:293.275px 242.965px 0" id="prefix__elhe77udsy9b" class="prefix__animable" fill="none" stroke="#263238" stroke-linecap="round" stroke-linejoin="round" d="M286.18 241.53l14.19 2.87"/><path style="transform-origin:291.05px 245.9px 0" id="prefix__elrw2xxbc8vrn" class="prefix__animable" fill="none" stroke="#263238" stroke-linecap="round" stroke-linejoin="round" d="M282.71 243.75l16.68 4.3"/><path style="transform-origin:291.735px 250.09px 0" id="prefix__elt7zdweo7a9g" class="prefix__animable" fill="none" stroke="#263238" stroke-linecap="round" stroke-linejoin="round" d="M285.85 248.48l11.77 3.22"/><path d="M171.34 177.73l-20.65-24s-7.73-13.79-11-17.66-5.24-3.31-5.24-1.93 3 3.59 4.14 5.24a28.7 28.7 0 012.21 4.69l-3.31 7.18a72 72 0 006.07 5.51 9.61 9.61 0 003.58 1.38L160.73 187z" style="transform-origin:152.895px 160.051px 0" id="prefix__elmcwno92spup" class="prefix__animable" fill="#fff" stroke="#263238" stroke-linecap="round" stroke-linejoin="round"/><path style="transform-origin:139.1px 147.54px 0" id="prefix__elm3o1qzmazn7" class="prefix__animable" fill="#fff" stroke="#263238" stroke-linecap="round" stroke-linejoin="round" d="M139.1 141.06l5.24 6.62-4.69 6.34-5.79-3.31 5.24-9.65z"/><path style="transform-origin:138.475px 149.44px 0" id="prefix__eln88abpjxik" class="prefix__animable" fill="none" stroke="#263238" stroke-linecap="round" stroke-linejoin="round" d="M135.66 147.41l5.63 4.06"/><path style="transform-origin:140.155px 146.93px 0" id="prefix__elizgog8zdt8" class="prefix__animable" fill="none" stroke="#263238" stroke-linecap="round" stroke-linejoin="round" d="M137.46 144.65l5.39 4.56"/><path d="M150.69 153.75s-3.31-12.69-4.69-13.24c-1.07-.43-4.66 2.91-6.22 4.43a2 2 0 00-.45 2.27.87.87 0 001 .54c1.38-.28 4-2.28 4-2.28s-1.1 6.62 1.93 8.28" style="transform-origin:144.923px 147.111px 0" id="prefix__el0g27j4xvery" class="prefix__animable" fill="#fff" stroke="#263238" stroke-linecap="round" stroke-linejoin="round"/></g><g id="prefix__freepik--Data-points--inject-151" style="transform-origin:255.165px 214.695px 0;animation:1s 1 forwards cubic-bezier(.36,-.01,.5,1.38) slideLeft;animation-delay:0s" class="prefix__animable"><path d="M332.85 73.42h-29.08a3.19 3.19 0 00-3.19 3.19v12.14a3.19 3.19 0 003.19 3.19h25.75l6.48 7.59V76.61a3.18 3.18 0 00-3.15-3.19z" style="transform-origin:318.29px 86.475px 0" id="prefix__elfh54jz6nlvq" class="prefix__animable" fill="#263238"/><path style="transform-origin:318.03px 78.61px 0" id="prefix__el9ot7ad2an2q" class="prefix__animable" fill="none" stroke="#fff" stroke-miterlimit="10" d="M307.36 78.61h21.34"/><path style="transform-origin:318.03px 82.51px 0" id="prefix__elh1m9zqepjjb" class="prefix__animable" fill="none" stroke="#fff" stroke-miterlimit="10" d="M307.36 82.51h21.34"/><path style="transform-origin:318.03px 86.41px 0" id="prefix__el3gl3eeavai4" class="prefix__animable" fill="none" stroke="#fff" stroke-miterlimit="10" d="M307.36 86.41h21.34"/><path d="M447.19 202.41h29.07a3.19 3.19 0 013.19 3.19v12.14a3.19 3.19 0 01-3.19 3.19h-25.75l-6.51 7.59V205.6a3.19 3.19 0 013.19-3.19z" style="transform-origin:461.725px 215.465px 0" id="prefix__elvopmvfscfk" class="prefix__animable" fill="#263238"/><path style="transform-origin:462.005px 207.6px 0" id="prefix__el2zp7moihw8k" class="prefix__animable" fill="none" stroke="#fff" stroke-miterlimit="10" d="M472.67 207.6h-21.33"/><path style="transform-origin:462.005px 211.5px 0" id="prefix__ele9508kb76td" class="prefix__animable" fill="none" stroke="#fff" stroke-miterlimit="10" d="M472.67 211.5h-21.33"/><path style="transform-origin:462.005px 215.39px 0" id="prefix__elb74he8yec4n" class="prefix__animable" fill="none" stroke="#fff" stroke-miterlimit="10" d="M472.67 215.39h-21.33"/><path d="M67.79 212.09H38.71a3.18 3.18 0 00-3.19 3.18v12.15a3.18 3.18 0 003.19 3.18h25.75l6.54 7.6v-22.93a3.18 3.18 0 00-3.21-3.18z" style="transform-origin:53.26px 225.145px 0" id="prefix__elpqkppohrar" class="prefix__animable" fill="#263238"/><path style="transform-origin:52.97px 217.28px 0" id="prefix__el35zp6zxnnx5" class="prefix__animable" fill="none" stroke="#fff" stroke-miterlimit="10" d="M42.3 217.28h21.34"/><path style="transform-origin:52.97px 221.18px 0" id="prefix__elxno2slnbki" class="prefix__animable" fill="none" stroke="#fff" stroke-miterlimit="10" d="M42.3 221.18h21.34"/><path style="transform-origin:52.97px 225.07px 0" id="prefix__elzuavz62inr8" class="prefix__animable" fill="none" stroke="#fff" stroke-miterlimit="10" d="M42.3 225.07h21.34"/><path d="M204.41 292.7h29.08a3.19 3.19 0 013.19 3.19V308a3.19 3.19 0 01-3.19 3.19h-25.75l-6.52 7.59v-22.89a3.19 3.19 0 013.19-3.19z" style="transform-origin:218.95px 305.74px 0" id="prefix__elql2w51e59j" class="prefix__animable" fill="#fff" stroke="#8f8f8f" stroke-miterlimit="10"/><path style="transform-origin:219.23px 297.89px 0" id="prefix__el82b1x23v2ex" class="prefix__animable" fill="none" stroke="#8f8f8f" stroke-miterlimit="10" d="M229.9 297.89h-21.34"/><path style="transform-origin:219.23px 301.79px 0" id="prefix__ela59njpubc6" class="prefix__animable" fill="none" stroke="#8f8f8f" stroke-miterlimit="10" d="M229.9 301.79h-21.34"/><path style="transform-origin:219.23px 305.69px 0" id="prefix__el4yjt61ks1pp" class="prefix__animable" fill="none" stroke="#8f8f8f" stroke-miterlimit="10" d="M229.9 305.69h-21.34"/><path style="transform-origin:63.855px 272.05px 0" id="prefix__elhapc2p149ri" class="prefix__animable" fill="none" stroke="#8f8f8f" stroke-miterlimit="10" d="M49.48 272.05h28.75"/><path style="transform-origin:350.34px 225.165px 0" id="prefix__elh5g5gme9z84" class="prefix__animable" fill="#fff" stroke="#8f8f8f" stroke-miterlimit="10" d="M337.26 214.41h26.16v21.51h-26.16z"/><path style="transform-origin:350.195px 225.015px 0" id="prefix__elqr82wfyattm" class="prefix__animable" fill="none" stroke="#8f8f8f" stroke-miterlimit="10" d="M337.55 226.03l9.89-6.39 5.81 7.85 4.94-2.62 4.65 5.52"/><path d="M360.22 219.64a3.2 3.2 0 11-3.19-3.2 3.2 3.2 0 013.19 3.2z" style="transform-origin:357.02px 219.64px 0" id="prefix__elomv1k1inu2" class="prefix__animable" fill="none" stroke="#8f8f8f" stroke-miterlimit="10"/><path style="transform-origin:353.11px 83.27px 0" id="prefix__elrwio9u0a86" class="prefix__animable" fill="#fff" stroke="#8f8f8f" stroke-linecap="round" stroke-linejoin="round" d="M362.06 95.8h-17.9V75.27l4.71-4.53h13.19V95.8z"/><path style="transform-origin:346.595px 73.005px 0" id="prefix__el419stcqd5tv" class="prefix__animable" fill="#fff" stroke="#8f8f8f" stroke-linecap="round" stroke-linejoin="round" d="M344.16 75.27h4.87v-4.53l-4.87 4.53z"/><path style="transform-origin:372.68px 83.27px 0" id="prefix__elwlky690j6e" class="prefix__animable" fill="#fff" stroke="#8f8f8f" stroke-linecap="round" stroke-linejoin="round" d="M381.63 95.8h-17.9V75.27l4.71-4.53h13.19V95.8z"/><path style="transform-origin:366.165px 73.005px 0" id="prefix__elyty6uwvzba" class="prefix__animable" fill="#fff" stroke="#8f8f8f" stroke-linecap="round" stroke-linejoin="round" d="M363.73 75.27h4.87v-4.53l-4.87 4.53z"/><path style="transform-origin:392.25px 83.27px 0" id="prefix__ellqxwkplah6" class="prefix__animable" fill="#fff" stroke="#8f8f8f" stroke-linecap="round" stroke-linejoin="round" d="M401.2 95.8h-17.9V75.27l4.71-4.53h13.19V95.8z"/><path style="transform-origin:385.735px 73.005px 0" id="prefix__el991jfr94vz" class="prefix__animable" fill="#fff" stroke="#8f8f8f" stroke-linecap="round" stroke-linejoin="round" d="M383.3 75.27h4.87v-4.53l-4.87 4.53z"/><path style="transform-origin:69.065px 333.89px 0" id="prefix__el1g35xhlfrnw" class="prefix__animable" fill="none" stroke="#8f8f8f" stroke-miterlimit="10" d="M41.15 333.89h55.83"/><path style="transform-origin:69.1px 324.695px 0" id="prefix__elt0isrcwxm9" class="prefix__animable" fill="none" stroke="#8f8f8f" stroke-miterlimit="10" d="M69.1 333.89V315.5"/><g id="prefix__elxgfs2exr3sj"><circle cx="41.15" cy="333.89" r="10.25" style="transform-origin:41.15px 333.89px 0" class="prefix__animable" id="prefix__elghqt6lsgq0b" fill="#fff" stroke="#8f8f8f" stroke-miterlimit="10" transform="rotate(-22.5)"/></g><path d="M49.29 340.1l-8.42-4.77v-11.68a10.25 10.25 0 108.42 16.45z" style="transform-origin:40.0847px 333.899px 0" id="prefix__elv1damst1uea" class="prefix__animable" fill="#51baa7" stroke="#8f8f8f" stroke-miterlimit="10"/><path d="M47.16 333.89a6 6 0 11-6-6 6 6 0 016 6z" style="transform-origin:41.16px 333.89px 0" id="prefix__elebewrnwog8" class="prefix__animable" fill="#fff" stroke="#8f8f8f" stroke-miterlimit="10"/><g id="prefix__elzvdijpe7nn"><circle cx="69.1" cy="333.89" r="10.25" style="transform-origin:69.1px 333.89px 0" class="prefix__animable" id="prefix__el55hz8ty555" fill="#fff" stroke="#8f8f8f" stroke-miterlimit="10" transform="rotate(-22.5)"/></g><path d="M77.24 340.1l-8.41-4.77v-11.68a10.25 10.25 0 108.41 16.45z" style="transform-origin:68.0346px 333.899px 0" id="prefix__elqbes5qspee" class="prefix__animable" fill="#51baa7" stroke="#8f8f8f" stroke-miterlimit="10"/><path d="M75.11 333.89a6 6 0 11-6-6 6 6 0 016 6z" style="transform-origin:69.11px 333.89px 0" id="prefix__elryecvq8i59" class="prefix__animable" fill="#fff" stroke="#8f8f8f" stroke-miterlimit="10"/><g id="prefix__ell3szcxzrada"><circle cx="97.05" cy="333.89" r="10.25" style="transform-origin:97.05px 333.89px 0" class="prefix__animable" id="prefix__el0mnbfhdgeckd" fill="#fff" stroke="#8f8f8f" stroke-miterlimit="10" transform="rotate(-76.56)"/></g><path d="M105.19 340.1l-8.41-4.77v-11.68a10.25 10.25 0 108.41 16.45z" style="transform-origin:95.9846px 333.899px 0" id="prefix__elta5dthrx54o" class="prefix__animable" fill="#51baa7" stroke="#8f8f8f" stroke-miterlimit="10"/><path d="M103.07 333.89a6 6 0 11-6-6 6 6 0 016 6z" style="transform-origin:97.07px 333.89px 0" id="prefix__elfouofyz91z" class="prefix__animable" fill="#fff" stroke="#8f8f8f" stroke-miterlimit="10"/><circle cx="134.41" cy="134.16" r="31.76" style="transform-origin:134.41px 134.16px 0" id="prefix__elswxt1rk92f" class="prefix__animable" fill="none" stroke="#8f8f8f" stroke-miterlimit="10"/><circle cx="134.41" cy="134.16" r="20.76" style="transform-origin:134.41px 134.16px 0" id="prefix__el7tr543yjync" class="prefix__animable" fill="none" stroke="#8f8f8f" stroke-miterlimit="10"/><path style="transform-origin:417.67px 268.25px 0" id="prefix__el2x8hrbicvzf" class="prefix__animable" fill="none" stroke="#8f8f8f" stroke-miterlimit="10" d="M411.17 233l13 70.5"/><path style="transform-origin:198.28px 244.195px 0" id="prefix__eldj7sl309nse" class="prefix__animable" fill="none" stroke="#8f8f8f" stroke-miterlimit="10" d="M151.17 237.5l94.22 13.39"/><path style="transform-origin:156.42px 317px 0" id="prefix__elvsqn0loy2i" class="prefix__animable" fill="none" stroke="#8f8f8f" stroke-miterlimit="10" d="M173.17 298l-33.5 38"/><path style="transform-origin:216.42px 235.775px 0" id="prefix__eljd9yw1mtxqk" class="prefix__animable" fill="none" stroke="#8f8f8f" stroke-miterlimit="10" d="M139.67 338.5L90.17 245l61-7.5 22 60.5 169.5-112v-52.95"/><path style="transform-origin:127.985px 189px 0" id="prefix__el66zvwaauvq5" class="prefix__animable" fill="none" stroke="#8f8f8f" stroke-miterlimit="10" d="M90.17 245l-16.5-65 60.74-45.84L182.3 133"/><path style="transform-origin:112.42px 208.75px 0" id="prefix__eloan7v7sf9qh" class="prefix__animable" fill="none" stroke="#8f8f8f" stroke-miterlimit="10" d="M151.17 237.5L73.67 180"/><path style="transform-origin:111.67px 274.25px 0" id="prefix__el6xj9cufsbm7" class="prefix__animable" fill="none" stroke="#8f8f8f" stroke-miterlimit="10" d="M151.17 237.5l-36.55 54.09L72.17 311"/><path style="transform-origin:186.595px 295.255px 0" id="prefix__eln3ypyb633ya" class="prefix__animable" fill="none" stroke="#8f8f8f" stroke-miterlimit="10" d="M200.02 326.28L173.17 298l8.83-33.77"/><path style="transform-origin:156.905px 292.125px 0" id="prefix__eleifqurstnrs" class="prefix__animable" fill="none" stroke="#8f8f8f" stroke-miterlimit="10" d="M173.17 298l-32.53-11.75"/><path style="transform-origin:410.52px 250.95px 0" id="prefix__el1beydp2seqb" class="prefix__animable" fill="none" stroke="#8f8f8f" stroke-miterlimit="10" d="M445.55 234.87L411.17 233l-35.68 35.9"/><path style="transform-origin:332.97px 126.905px 0" id="prefix__elq4s9iyvqqpe" class="prefix__animable" fill="none" stroke="#8f8f8f" stroke-miterlimit="10" d="M337.95 104.89l4.05 26.23-18.06 17.8"/><path style="transform-origin:355.655px 123.675px 0" id="prefix__el0tgckym19ab" class="prefix__animable" fill="none" stroke="#8f8f8f" stroke-miterlimit="10" d="M342 131.12l27.31-14.89"/><path style="transform-origin:391.685px 263.715px 0" id="prefix__elkqyak1i7p9o" class="prefix__animable" fill="none" stroke="#8f8f8f" stroke-miterlimit="10" d="M394.18 271.89l-4.99-16.35"/><path style="transform-origin:149.61px 227.355px 0" id="prefix__elp15le92aoe" class="prefix__animable" fill="none" stroke="#8f8f8f" stroke-miterlimit="10" d="M150.68 235.83l-2.14-16.95"/><path style="transform-origin:79.11px 242.85px 0" id="prefix__elxvpmuqah3wm" class="prefix__animable" fill="none" stroke="#8f8f8f" stroke-miterlimit="10" d="M87.61 243.72l-17-1.74"/><path style="transform-origin:66.455px 295.205px 0" id="prefix__elhn3g6wygz0u" class="prefix__animable" fill="none" stroke="#8f8f8f" stroke-miterlimit="10" d="M69.67 313.5l-6.43-36.59"/><path style="transform-origin:156.405px 96.8px 0" id="prefix__elqytwexs3y1" class="prefix__animable" fill="none" stroke="#8f8f8f" stroke-miterlimit="10" d="M165.3 94.97l-30.89 39.19V59.44h43.99"/><path style="transform-origin:376.92px 209.5px 0" id="prefix__eli4ayj2p90zq" class="prefix__animable" fill="none" stroke="#8f8f8f" stroke-miterlimit="10" d="M342.67 186l68.5 47"/><circle cx="342" cy="131.12" r="5" style="transform-origin:342px 131.12px 0" id="prefix__el5dtz8t4yfvj" class="prefix__animable" fill="#51baa7"/><g id="prefix__elpdptxz76my"><circle cx="342" cy="186.66" r="9.21" style="transform-origin:342px 186.66px 0" class="prefix__animable" id="prefix__elex2veqc4h1w" fill="none" stroke="#51baa7" stroke-miterlimit="10" transform="rotate(-77.16)"/></g><circle cx="342" cy="186.66" r="5" style="transform-origin:342px 186.66px 0" id="prefix__el4ut2mp2uebv" class="prefix__animable" fill="#51baa7"/><circle cx="410.86" cy="233.14" r="9.21" style="transform-origin:410.86px 233.14px 0" id="prefix__eli1egmuln0ep" class="prefix__animable" fill="none" stroke="#51baa7" stroke-miterlimit="10"/><circle cx="410.86" cy="233.14" r="5" style="transform-origin:410.86px 233.14px 0" id="prefix__eltfgxd9khrq" class="prefix__animable" fill="#51baa7"/><g id="prefix__elqxeqowh0ub"><circle cx="172.95" cy="297.59" r="9.21" style="transform-origin:172.95px 297.59px 0" class="prefix__animable" id="prefix__el1rwez1hwr6i" fill="none" stroke="#51baa7" stroke-miterlimit="10" transform="rotate(-76.5)"/></g><circle cx="172.95" cy="297.59" r="5" style="transform-origin:172.95px 297.59px 0" id="prefix__eldcld7bzxxmp" class="prefix__animable" fill="#51baa7"/><g id="prefix__elz23fnm9o919"><circle cx="134.3" cy="133.89" r="9.21" style="transform-origin:134.3px 133.89px 0" class="prefix__animable" id="prefix__elzqf3cjg7iwg" fill="none" stroke="#51baa7" stroke-miterlimit="10" transform="rotate(-76.56)"/></g><circle cx="134.3" cy="133.89" r="5" style="transform-origin:134.3px 133.89px 0" id="prefix__el51oa15wvz5" class="prefix__animable" fill="#51baa7"/><circle cx="375.89" cy="268.81" r="2.5" style="transform-origin:375.89px 268.81px 0" id="prefix__el429bqt0q1ep" class="prefix__animable" fill="#51baa7"/><circle cx="445.17" cy="234.86" r="2.5" style="transform-origin:445.17px 234.86px 0" id="prefix__el6y162m423nl" class="prefix__animable" fill="#51baa7"/><circle cx="324.31" cy="148.65" r="2.5" style="transform-origin:324.31px 148.65px 0" id="prefix__elup6dlvpkr2r" class="prefix__animable" fill="#51baa7"/><circle cx="369.41" cy="116.48" r="2.5" style="transform-origin:369.41px 116.48px 0" id="prefix__elm98fcxr3kxd" class="prefix__animable" fill="#51baa7"/><circle cx="337.57" cy="104.87" r="2.5" style="transform-origin:337.57px 104.87px 0" id="prefix__elbk2i9dzw1x7" class="prefix__animable" fill="#51baa7"/><circle cx="139.67" cy="336" r="2.5" style="transform-origin:139.67px 336px 0" id="prefix__elfisfp941qsr" class="prefix__animable" fill="#51baa7"/><circle cx="63.24" cy="276.91" r="2.5" style="transform-origin:63.24px 276.91px 0" id="prefix__elp7a9gnwyxl" class="prefix__animable" fill="#51baa7"/><circle cx="139.98" cy="286.45" r="2.5" style="transform-origin:139.98px 286.45px 0" id="prefix__elpt2m3w1ag0b" class="prefix__animable" fill="#51baa7"/><circle cx="181.41" cy="264.27" r="2.5" style="transform-origin:181.41px 264.27px 0" id="prefix__el7idxyibfp5u" class="prefix__animable" fill="#51baa7"/><path d="M205.12 326.27a4.74 4.74 0 11-4.74-4.74 4.74 4.74 0 014.74 4.74z" style="transform-origin:200.38px 326.27px 0" id="prefix__eln71dmdpb3bl" class="prefix__animable" fill="#51baa7"/><circle cx="151.17" cy="237.5" r="2.5" style="transform-origin:151.17px 237.5px 0" id="prefix__elsxukzf4mp0n" class="prefix__animable" fill="#51baa7"/><circle cx="183.64" cy="133.26" r="2.5" style="transform-origin:183.64px 133.26px 0" id="prefix__elanzewuhlpcf" class="prefix__animable" fill="#51baa7"/><circle cx="165.3" cy="94.97" r="2.5" style="transform-origin:165.3px 94.97px 0" id="prefix__eliudnjbdwljq" class="prefix__animable" fill="#51baa7"/><circle cx="73.67" cy="180" r="2.5" style="transform-origin:73.67px 180px 0" id="prefix__el2bz2odkmuzo" class="prefix__animable" fill="#51baa7"/><circle cx="424.17" cy="303.5" r="5" style="transform-origin:424.17px 303.5px 0" id="prefix__el9cjkpzzft14" class="prefix__animable" fill="#51baa7"/><circle cx="114.77" cy="291.76" r="5" style="transform-origin:114.77px 291.76px 0" id="prefix__elh7ozi33o8pu" class="prefix__animable" fill="#51baa7"/><circle cx="244.14" cy="251.08" r="5" style="transform-origin:244.14px 251.08px 0" id="prefix__ela2ejc70sw4v" class="prefix__animable" fill="#51baa7"/><circle cx="69.56" cy="311.43" r="5" style="transform-origin:69.56px 311.43px 0" id="prefix__elnqylifnt57j" class="prefix__animable" fill="#51baa7"/><circle cx="90.17" cy="245" r="5" style="transform-origin:90.17px 245px 0" id="prefix__elcvmnqkut4eb" class="prefix__animable" fill="#51baa7"/><path d="M393.33 274.36a2.5 2.5 0 113-1.85 2.5 2.5 0 01-3 1.85z" style="transform-origin:393.899px 271.926px 0" id="prefix__eliwfemah6w0s" class="prefix__animable" fill="#51baa7"/><path d="M149.8 216.58a2.5 2.5 0 11-3.28 1.32 2.5 2.5 0 013.28-1.32z" style="transform-origin:148.82px 218.88px 0" id="prefix__elzf7mzup90u" class="prefix__animable" fill="#51baa7"/><path d="M68.65 240.24a2.5 2.5 0 11.54 3.5 2.52 2.52 0 01-.54-3.5z" style="transform-origin:70.6681px 241.721px 0" id="prefix__eljx1604opoal" class="prefix__animable" fill="#51baa7"/><path style="transform-origin:53.465px 265.66px 0" id="prefix__elq7la0g7iwur" class="prefix__animable" fill="#51baa7" d="M51.39 259.59h4.15v12.14h-4.15z"/><path style="transform-origin:60.495px 260.71px 0" id="prefix__elp7iesuh55xb" class="prefix__animable" fill="#51baa7" d="M58.42 249.69h4.15v22.04h-4.15z"/><path style="transform-origin:67.525px 262.625px 0" id="prefix__elnsn3iwsoax" class="prefix__animable" fill="#51baa7" d="M65.45 253.52h4.15v18.21h-4.15z"/><path style="transform-origin:74.555px 267.895px 0" id="prefix__el9p8drfh8tpi" class="prefix__animable" fill="#51baa7" d="M72.48 264.06h4.15v7.67h-4.15z"/><path d="M185.07 46.17h-2.81a.7.7 0 110-1.39h2.81a.7.7 0 110 1.39zm.7 2.53a.7.7 0 00-.7-.7h-2.81a.7.7 0 100 1.39h2.81a.69.69 0 00.7-.69zm0 3.22a.7.7 0 00-.7-.7h-2.81a.7.7 0 100 1.39h2.81a.69.69 0 00.7-.69zm0 3.22a.7.7 0 00-.7-.7h-2.81a.7.7 0 100 1.39h2.81a.69.69 0 00.7-.69zm0 3.22a.7.7 0 00-.7-.7h-2.81a.7.7 0 100 1.39h2.81a.69.69 0 00.7-.69zm0 3.22a.69.69 0 00-.7-.69h-2.81a.69.69 0 00-.7.69.7.7 0 00.7.7h2.81a.7.7 0 00.7-.7zm0 3.22a.69.69 0 00-.7-.69h-2.81a.7.7 0 100 1.39h2.81a.7.7 0 00.7-.7zm0 3.22a.69.69 0 00-.7-.69h-2.81a.7.7 0 100 1.39h2.81a.7.7 0 00.7-.72zm10.54-22.54a.69.69 0 00-.69-.7h-7.4a.7.7 0 100 1.39h7.4a.69.69 0 00.69-.69zm0 3.22a.69.69 0 00-.69-.7h-7.4a.7.7 0 100 1.39h7.4a.69.69 0 00.69-.69zm0 3.22a.69.69 0 00-.69-.7h-7.4a.7.7 0 100 1.39h7.4a.69.69 0 00.69-.69zm0 3.22a.69.69 0 00-.69-.7h-7.4a.7.7 0 100 1.39h7.4a.69.69 0 00.69-.69zm0 3.22a.69.69 0 00-.69-.7h-7.4a.7.7 0 100 1.39h7.4a.69.69 0 00.69-.69zm8.86 3.22a.69.69 0 00-.7-.69h-7.39a.69.69 0 00-.7.69.7.7 0 00.7.7h7.39a.7.7 0 00.7-.7zm0 3.22a.69.69 0 00-.7-.69h-7.39a.7.7 0 100 1.39h7.39a.7.7 0 00.7-.7zm0 3.22a.69.69 0 00-.7-.69h-7.39a.7.7 0 100 1.39h7.39a.7.7 0 00.7-.72zm-5.6-22.54a.81.81 0 10-.81.8.81.81 0 00.81-.8zm2.41 0a.81.81 0 10-.8.8.8.8 0 00.82-.8zm2.42 0a.81.81 0 10-.81.8.81.81 0 00.81-.8zm2.41 0a.81.81 0 10-.8.8.8.8 0 00.8-.8zm2.42 0a.81.81 0 10-.8.8.8.8 0 00.8-.8zm2.42 0a.81.81 0 10-.81.8.81.81 0 00.81-.8zm-12.08 6.44a.81.81 0 10-.81.8.81.81 0 00.81-.8zm2.41 0a.81.81 0 10-.8.8.8.8 0 00.82-.8zm2.42 0a.81.81 0 10-.81.8.81.81 0 00.81-.8zm2.41 0a.81.81 0 10-.8.8.8.8 0 00.8-.8zm2.42 0a.81.81 0 10-.8.8.8.8 0 00.8-.8zm2.42 0a.81.81 0 10-.81.8.81.81 0 00.81-.8zm-3.83 9.26a.81.81 0 10-.8.8.8.8 0 00.8-.8zm2.42 0a.81.81 0 10-.81.8.81.81 0 00.81-.8zm2.41 0a.81.81 0 10-.8.8.8.8 0 00.8-.8zm2.42 0a.81.81 0 10-.81.8.81.81 0 00.81-.8zm2.41 0a.81.81 0 10-.8.8.8.8 0 00.8-.8zm2.42 0a.81.81 0 10-.81.8.81.81 0 00.81-.8zm-12.08 6.64a.81.81 0 10-.8.81.8.8 0 00.8-.81zm2.42 0a.81.81 0 10-.81.81.8.8 0 00.81-.81zm2.41 0a.81.81 0 10-.8.81.8.8 0 00.8-.81zm2.42 0a.81.81 0 10-.81.81.8.8 0 00.81-.81zm2.41 0a.81.81 0 10-.8.81.8.8 0 00.8-.81zm2.42 0a.81.81 0 10-.81.81.8.8 0 00.81-.81z" style="transform-origin:200.688px 56.6925px 0" id="prefix__elcwat12pfkur" class="prefix__animable" fill="#51baa7"/><path d="M185.07 71.94h-2.81a.69.69 0 01-.7-.69.7.7 0 01.7-.7h2.81a.7.7 0 01.7.7.69.69 0 01-.7.69zm.7 2.53a.7.7 0 00-.7-.7h-2.81a.7.7 0 000 1.4h2.81a.7.7 0 00.7-.7zm0 3.22a.69.69 0 00-.7-.69h-2.81a.69.69 0 00-.7.69.7.7 0 00.7.7h2.81a.7.7 0 00.7-.7zm0 3.22a.69.69 0 00-.7-.69h-2.81a.7.7 0 100 1.39h2.81a.7.7 0 00.7-.7zm0 3.22a.69.69 0 00-.7-.69h-2.81a.7.7 0 100 1.39h2.81a.7.7 0 00.7-.7zm0 3.22a.69.69 0 00-.7-.69h-2.81a.7.7 0 100 1.39h2.81a.7.7 0 00.7-.7zm0 3.22a.69.69 0 00-.7-.69h-2.81a.7.7 0 100 1.39h2.81a.7.7 0 00.7-.7zm0 3.23a.7.7 0 00-.7-.7h-2.81a.7.7 0 100 1.39h2.81a.69.69 0 00.7-.69zm10.54-22.55a.7.7 0 00-.69-.7h-7.4a.71.71 0 00-.7.7.7.7 0 00.7.69h7.4a.69.69 0 00.69-.69zm0 3.22a.7.7 0 00-.69-.7h-7.4a.7.7 0 100 1.4h7.4a.7.7 0 00.69-.7zm0 3.22a.69.69 0 00-.69-.69h-7.4a.7.7 0 00-.7.69.71.71 0 00.7.7h7.4a.7.7 0 00.69-.7zm0 3.22a.69.69 0 00-.69-.69h-7.4a.7.7 0 100 1.39h7.4a.69.69 0 00.69-.7zm0 3.22a.69.69 0 00-.69-.69h-7.4a.7.7 0 100 1.39h7.4a.69.69 0 00.69-.7zm8.86 3.22a.69.69 0 00-.7-.69h-7.39a.7.7 0 100 1.39h7.39a.7.7 0 00.7-.7zm0 3.22a.69.69 0 00-.7-.69h-7.39a.7.7 0 100 1.39h7.39a.7.7 0 00.7-.7zm0 3.23a.7.7 0 00-.7-.7h-7.39a.7.7 0 100 1.39h7.39a.69.69 0 00.7-.69zm-5.6-22.55a.81.81 0 10-.81.8.81.81 0 00.81-.8zm2.41 0a.81.81 0 10-.8.8.8.8 0 00.82-.8zm2.42 0a.81.81 0 10-.81.8.81.81 0 00.81-.8zm2.41 0a.81.81 0 10-.8.8.8.8 0 00.8-.8zm2.42 0a.81.81 0 10-.8.8.8.8 0 00.8-.8zm2.42 0a.81.81 0 10-.81.8.81.81 0 00.81-.8zm-12.08 6.44a.81.81 0 10-.81.81.8.8 0 00.81-.81zm2.41 0a.81.81 0 10-.8.81.8.8 0 00.82-.81zm2.42 0a.81.81 0 10-.81.81.8.8 0 00.81-.81zm2.41 0a.81.81 0 10-.8.81.8.8 0 00.8-.81zm2.42 0a.81.81 0 10-.8.81.8.8 0 00.8-.81zm2.42 0a.81.81 0 10-.81.81.8.8 0 00.81-.81zM207.82 87a.81.81 0 10-.8.81.8.8 0 00.8-.81zm2.42 0a.81.81 0 10-.81.81.8.8 0 00.81-.81zm2.41 0a.81.81 0 10-.8.81.8.8 0 00.8-.81zm2.42 0a.81.81 0 10-.81.81.8.8 0 00.81-.81zm2.41 0a.81.81 0 10-.8.81.8.8 0 00.8-.81zm2.42 0a.81.81 0 10-.81.81.8.8 0 00.81-.81zm-12.08 6.64a.81.81 0 10-.8.81.8.8 0 00.8-.86zm2.42 0a.81.81 0 10-.81.81.8.8 0 00.81-.86zm2.41 0a.81.81 0 10-.8.81.8.8 0 00.8-.86zm2.42 0a.81.81 0 10-.81.81.8.8 0 00.81-.86zm2.41 0a.81.81 0 10-.8.81.8.8 0 00.8-.86zm2.42 0a.81.81 0 10-.81.81.8.8 0 00.81-.86z" style="transform-origin:200.689px 82.4625px 0" id="prefix__elf6vtyba0cj7" class="prefix__animable" fill="#51baa7"/><path d="M185.07 98.34h-2.81a.7.7 0 110-1.39h2.81a.7.7 0 110 1.39zm.7 2.53a.7.7 0 00-.7-.7h-2.81a.7.7 0 100 1.39h2.81a.69.69 0 00.7-.69zm0 3.22a.7.7 0 00-.7-.7h-2.81a.7.7 0 100 1.39h2.81a.69.69 0 00.7-.69zm0 3.22a.7.7 0 00-.7-.7h-2.81a.7.7 0 100 1.39h2.81a.69.69 0 00.7-.69zm0 3.22a.7.7 0 00-.7-.7h-2.81a.7.7 0 100 1.39h2.81a.69.69 0 00.7-.69zm0 3.22a.7.7 0 00-.7-.7h-2.81a.7.7 0 00-.7.7.69.69 0 00.7.69h2.81a.69.69 0 00.7-.69zm0 3.22a.69.69 0 00-.7-.69h-2.81a.69.69 0 00-.7.69.7.7 0 00.7.7h2.81a.7.7 0 00.7-.67zm0 3.22a.69.69 0 00-.7-.69h-2.81a.7.7 0 100 1.39h2.81a.7.7 0 00.7-.7zm10.54-22.54a.69.69 0 00-.69-.7h-7.4a.7.7 0 100 1.39h7.4a.69.69 0 00.69-.69zm0 3.22a.69.69 0 00-.69-.7h-7.4a.7.7 0 100 1.39h7.4a.69.69 0 00.69-.69zm0 3.22a.69.69 0 00-.69-.7h-7.4a.7.7 0 100 1.39h7.4a.69.69 0 00.69-.69zm0 3.22a.69.69 0 00-.69-.7h-7.4a.7.7 0 100 1.39h7.4a.69.69 0 00.69-.69zm0 3.22a.69.69 0 00-.69-.7h-7.4a.7.7 0 100 1.39h7.4a.69.69 0 00.69-.69zm8.86 3.22a.7.7 0 00-.7-.7h-7.39a.7.7 0 00-.7.7.69.69 0 00.7.69h7.39a.69.69 0 00.7-.69zm0 3.22a.69.69 0 00-.7-.69h-7.39a.69.69 0 00-.7.69.7.7 0 00.7.7h7.39a.7.7 0 00.7-.67zm0 3.22a.69.69 0 00-.7-.69h-7.39a.7.7 0 100 1.39h7.39a.7.7 0 00.7-.7zm-5.6-22.54a.81.81 0 10-.81.8.81.81 0 00.81-.8zm2.41 0a.81.81 0 10-.8.8.8.8 0 00.82-.8zm2.42 0a.81.81 0 10-.81.8.81.81 0 00.81-.8zm2.41 0a.81.81 0 10-.8.8.8.8 0 00.8-.8zm2.42 0a.81.81 0 10-.8.8.8.8 0 00.8-.8zm2.42 0a.81.81 0 10-.81.8.81.81 0 00.81-.8zm-12.08 6.44a.81.81 0 10-.81.8.81.81 0 00.81-.8zm2.41 0a.81.81 0 10-.8.8.8.8 0 00.82-.8zm2.42 0a.81.81 0 10-.81.8.81.81 0 00.81-.8zm2.41 0a.81.81 0 10-.8.8.8.8 0 00.8-.8zm2.42 0a.81.81 0 10-.8.8.8.8 0 00.8-.8zm2.42 0a.81.81 0 10-.81.8.81.81 0 00.81-.8zm-3.83 9.26a.81.81 0 10-.8.8.8.8 0 00.8-.8zm2.42 0a.81.81 0 10-.81.8.81.81 0 00.81-.8zm2.41 0a.81.81 0 10-.8.8.8.8 0 00.8-.8zm2.42 0a.81.81 0 10-.81.8.81.81 0 00.81-.8zm2.41 0a.81.81 0 10-.8.8.8.8 0 00.8-.8zm2.42 0a.81.81 0 10-.81.8.81.81 0 00.81-.8zM207.82 120a.81.81 0 10-.8.81.81.81 0 00.8-.81zm2.42 0a.81.81 0 10-.81.81.81.81 0 00.81-.81zm2.41 0a.81.81 0 10-.8.81.81.81 0 00.8-.81zm2.42 0a.81.81 0 10-.81.81.81.81 0 00.81-.81zm2.41 0a.81.81 0 10-.8.81.81.81 0 00.8-.81zm2.42 0a.81.81 0 10-.81.81.81.81 0 00.81-.81z" style="transform-origin:200.688px 108.863px 0" id="prefix__elaqayunbl1a" class="prefix__animable" fill="#51baa7"/><path d="M228.34 46.17h-2.82a.7.7 0 010-1.39h2.82a.7.7 0 110 1.39zm.7 2.53a.7.7 0 00-.7-.7h-2.82a.7.7 0 000 1.39h2.82a.69.69 0 00.66-.69zm0 3.22a.7.7 0 00-.7-.7h-2.82a.7.7 0 000 1.39h2.82a.69.69 0 00.66-.69zm0 3.22a.7.7 0 00-.7-.7h-2.82a.7.7 0 000 1.39h2.82a.69.69 0 00.66-.69zm0 3.22a.7.7 0 00-.7-.7h-2.82a.7.7 0 000 1.39h2.82a.69.69 0 00.66-.69zm0 3.22a.69.69 0 00-.7-.69h-2.82a.69.69 0 00-.69.69.7.7 0 00.69.7h2.82a.7.7 0 00.66-.7zm0 3.22a.69.69 0 00-.7-.69h-2.82a.7.7 0 000 1.39h2.82a.7.7 0 00.66-.7zM229 68a.69.69 0 00-.7-.69h-2.82a.7.7 0 000 1.39h2.82a.7.7 0 00.7-.7zm10.54-22.54a.69.69 0 00-.69-.7h-7.4a.7.7 0 100 1.39h7.4a.69.69 0 00.73-.67zm0 3.22a.69.69 0 00-.69-.7h-7.4a.7.7 0 100 1.39h7.4a.69.69 0 00.73-.67zm0 3.22a.69.69 0 00-.69-.7h-7.4a.7.7 0 100 1.39h7.4a.69.69 0 00.73-.67zm0 3.22a.69.69 0 00-.69-.7h-7.4a.7.7 0 100 1.39h7.4a.69.69 0 00.73-.67zm0 3.22a.69.69 0 00-.69-.7h-7.4a.7.7 0 100 1.39h7.4a.69.69 0 00.73-.67zm8.86 3.22a.69.69 0 00-.7-.69h-7.39a.69.69 0 00-.7.69.7.7 0 00.7.7h7.39a.7.7 0 00.74-.68zm0 3.22a.69.69 0 00-.7-.69h-7.39a.7.7 0 100 1.39h7.39a.7.7 0 00.74-.68zm0 3.22a.69.69 0 00-.7-.69h-7.39a.7.7 0 100 1.39h7.39a.7.7 0 00.74-.7zm-5.6-22.54a.81.81 0 10-.81.8.81.81 0 00.85-.78zm2.41 0a.81.81 0 10-.8.8.8.8 0 00.84-.78zm2.42 0a.81.81 0 10-.81.8.81.81 0 00.85-.78zm2.41 0a.81.81 0 10-.8.8.8.8 0 00.84-.78zm2.42 0a.81.81 0 10-.81.8.81.81 0 00.85-.78zm2.42 0a.81.81 0 10-.81.8.81.81 0 00.85-.78zM242.8 51.9a.81.81 0 10-.81.8.81.81 0 00.85-.78zm2.41 0a.81.81 0 10-.8.8.8.8 0 00.84-.78zm2.42 0a.81.81 0 10-.81.8.81.81 0 00.85-.78zm2.41 0a.81.81 0 10-.8.8.8.8 0 00.84-.78zm2.42 0a.81.81 0 10-.81.8.81.81 0 00.85-.78zm2.42 0a.81.81 0 10-.81.8.81.81 0 00.85-.78zm-3.83 9.26a.81.81 0 10-.81.8.81.81 0 00.85-.78zm2.42 0a.81.81 0 10-.81.8.81.81 0 00.85-.78zm2.41 0a.81.81 0 10-.8.8.8.8 0 00.84-.78zm2.42 0a.81.81 0 10-.81.8.81.81 0 00.85-.78zm2.41 0a.81.81 0 10-.8.8.8.8 0 00.84-.78zm2.42 0a.81.81 0 10-.81.8.81.81 0 00.85-.78zm-12.08 6.64a.81.81 0 10-.81.81.8.8 0 00.85-.79zm2.42 0a.81.81 0 10-.81.81.8.8 0 00.85-.79zm2.41 0a.81.81 0 10-.8.81.8.8 0 00.84-.79zm2.42 0a.81.81 0 10-.81.81.8.8 0 00.85-.79zm2.41 0a.81.81 0 10-.8.81.8.8 0 00.84-.79zm2.42 0a.81.81 0 10-.81.81.8.8 0 00.85-.79z" style="transform-origin:244px 56.6725px 0" id="prefix__el7it6l4donsp" class="prefix__animable" fill="#51baa7"/><path d="M228.34 72.57h-2.82a.7.7 0 010-1.39h2.82a.7.7 0 110 1.39zm.7 2.52a.69.69 0 00-.7-.69h-2.82a.7.7 0 000 1.39h2.82a.7.7 0 00.66-.7zm0 3.22a.69.69 0 00-.7-.69h-2.82a.7.7 0 000 1.39h2.82a.7.7 0 00.66-.7zm0 3.22a.69.69 0 00-.7-.69h-2.82a.7.7 0 000 1.39h2.82a.7.7 0 00.66-.7zm0 3.22a.69.69 0 00-.7-.69h-2.82a.7.7 0 000 1.39h2.82a.7.7 0 00.66-.7zM229 88a.7.7 0 00-.7-.7h-2.82a.7.7 0 000 1.39h2.82a.69.69 0 00.7-.69zm0 3.22a.7.7 0 00-.7-.7h-2.82a.7.7 0 000 1.39h2.82a.69.69 0 00.7-.71zm0 3.22a.7.7 0 00-.7-.7h-2.82a.7.7 0 000 1.39h2.82a.69.69 0 00.7-.71zm10.54-22.55a.69.69 0 00-.69-.69h-7.4a.7.7 0 100 1.39h7.4a.69.69 0 00.73-.72zm0 3.22a.69.69 0 00-.69-.69h-7.4a.7.7 0 100 1.39h7.4a.69.69 0 00.73-.72zm0 3.22a.69.69 0 00-.69-.69h-7.4a.7.7 0 100 1.39h7.4a.69.69 0 00.73-.72zm0 3.22a.69.69 0 00-.69-.69h-7.4a.7.7 0 100 1.39h7.4a.69.69 0 00.73-.72zm0 3.22a.69.69 0 00-.69-.69h-7.4a.7.7 0 100 1.39h7.4a.69.69 0 00.73-.72zm8.9 3.23a.7.7 0 00-.7-.7h-7.39a.7.7 0 100 1.39h7.39a.69.69 0 00.7-.69zm0 3.22a.7.7 0 00-.7-.7h-7.39a.7.7 0 100 1.39h7.39a.69.69 0 00.7-.71zm0 3.22a.7.7 0 00-.7-.7h-7.39a.7.7 0 100 1.39h7.39a.69.69 0 00.7-.71zm-5.6-22.55a.81.81 0 10-.81.81.8.8 0 00.81-.83zm2.41 0a.81.81 0 10-.8.81.8.8 0 00.8-.83zm2.42 0a.81.81 0 10-.81.81.8.8 0 00.81-.83zm2.41 0a.81.81 0 10-.8.81.8.8 0 00.8-.83zm2.42 0a.81.81 0 10-.81.81.8.8 0 00.81-.83zm2.42 0a.81.81 0 10-.81.81.81.81 0 00.81-.83zm-12.08 6.44a.81.81 0 10-.81.81.8.8 0 00.81-.83zm2.41 0a.81.81 0 10-.8.81.8.8 0 00.8-.83zm2.42 0a.81.81 0 10-.81.81.8.8 0 00.81-.83zm2.41 0a.81.81 0 10-.8.81.8.8 0 00.8-.83zm2.42 0a.81.81 0 10-.81.81.8.8 0 00.81-.83zm2.42 0a.81.81 0 10-.81.81.81.81 0 00.81-.83zm-3.83 9.26a.81.81 0 10-.81.81.8.8 0 00.81-.83zm2.42 0a.81.81 0 10-.81.81.8.8 0 00.81-.83zm2.41 0a.81.81 0 10-.8.81.8.8 0 00.8-.83zm2.42 0a.81.81 0 10-.81.81.8.8 0 00.81-.83zm2.41 0a.81.81 0 10-.8.81.8.8 0 00.8-.83zm2.42 0a.81.81 0 10-.81.81.8.8 0 00.81-.83zm-12.08 6.65a.81.81 0 10-.81.8.81.81 0 00.81-.82zm2.42 0a.81.81 0 10-.81.8.81.81 0 00.81-.82zm2.41 0a.81.81 0 10-.8.8.8.8 0 00.8-.82zm2.42 0a.81.81 0 10-.81.8.81.81 0 00.81-.82zm2.41 0a.81.81 0 10-.8.8.8.8 0 00.8-.82zm2.42 0a.81.81 0 10-.81.8.81.81 0 00.81-.82z" style="transform-origin:244.017px 83.1075px 0" id="prefix__elj0edmodl19s" class="prefix__animable" fill="#51baa7"/><path d="M384.4 127.68h-2.82a.7.7 0 010-1.39h2.82a.7.7 0 110 1.39zm.7 2.52a.69.69 0 00-.7-.69h-2.82a.7.7 0 000 1.39h2.82a.7.7 0 00.7-.7zm0 3.23a.7.7 0 00-.7-.7h-2.82a.7.7 0 000 1.39h2.82a.69.69 0 00.7-.69zm0 3.22a.7.7 0 00-.7-.7h-2.82a.7.7 0 000 1.39h2.82a.69.69 0 00.7-.69zm0 3.22a.7.7 0 00-.7-.7h-2.82a.7.7 0 000 1.39h2.82a.69.69 0 00.7-.69zm0 3.22a.7.7 0 00-.7-.7h-2.82a.7.7 0 000 1.39h2.82a.69.69 0 00.7-.69zm0 3.22a.7.7 0 00-.7-.7h-2.82a.7.7 0 000 1.39h2.82a.69.69 0 00.7-.69zm0 3.22a.7.7 0 00-.7-.7h-2.82a.7.7 0 00-.69.7.69.69 0 00.69.69h2.82a.69.69 0 00.7-.69zM395.64 127a.69.69 0 00-.69-.69h-7.4a.7.7 0 100 1.39H395a.69.69 0 00.64-.7zm0 3.22a.69.69 0 00-.69-.69h-7.4a.7.7 0 100 1.39H395a.69.69 0 00.64-.72zm0 3.23a.69.69 0 00-.69-.7h-7.4a.7.7 0 100 1.39H395a.69.69 0 00.64-.71zm0 3.22a.69.69 0 00-.69-.7h-7.4a.7.7 0 100 1.39H395a.69.69 0 00.64-.71zm0 3.22a.69.69 0 00-.69-.7h-7.4a.7.7 0 100 1.39H395a.69.69 0 00.64-.71zm8.86 3.22a.7.7 0 00-.7-.7h-7.39a.7.7 0 100 1.39h7.39a.69.69 0 00.7-.71zm0 3.22a.7.7 0 00-.7-.7h-7.39a.7.7 0 100 1.39h7.39a.69.69 0 00.7-.71zm0 3.22a.7.7 0 00-.7-.7h-7.39a.7.7 0 00-.7.7.69.69 0 00.7.69h7.39a.69.69 0 00.7-.71zM398.9 127a.81.81 0 10-.81.81.8.8 0 00.81-.81zm2.41 0a.81.81 0 10-.8.81.8.8 0 00.8-.81zm2.42 0a.81.81 0 10-.81.81.8.8 0 00.81-.81zm2.41 0a.81.81 0 10-.8.81.8.8 0 00.8-.81zm2.42 0a.81.81 0 10-.81.81.8.8 0 00.81-.81zm2.42 0a.81.81 0 10-.81.81.81.81 0 00.83-.81zm-12.08 6.45a.81.81 0 10-.81.8.81.81 0 00.81-.82zm2.41 0a.81.81 0 10-.8.8.8.8 0 00.8-.82zm2.42 0a.81.81 0 10-.81.8.81.81 0 00.81-.82zm2.41 0a.81.81 0 10-.8.8.8.8 0 00.8-.82zm2.42 0a.81.81 0 10-.81.8.81.81 0 00.81-.82zm2.42 0a.81.81 0 10-.81.8.81.81 0 00.83-.82zm-3.83 9.26a.81.81 0 10-.81.8.81.81 0 00.81-.82zm2.42 0a.81.81 0 10-.81.8.81.81 0 00.81-.82zm2.41 0a.81.81 0 10-.8.8.8.8 0 00.82-.82zm2.42 0a.81.81 0 10-.81.8.81.81 0 00.81-.82zm2.41 0a.81.81 0 10-.8.8.8.8 0 00.8-.82zm2.42 0a.81.81 0 10-.81.8.81.81 0 00.81-.82zm-12.08 6.64a.81.81 0 10-.81.8.81.81 0 00.81-.82zm2.42 0a.81.81 0 10-.81.8.81.81 0 00.81-.82zm2.41 0a.81.81 0 10-.8.8.8.8 0 00.82-.82zm2.42 0a.81.81 0 10-.81.8.81.81 0 00.81-.82zm2.41 0a.81.81 0 10-.8.8.8.8 0 00.8-.82zm2.42 0a.81.81 0 10-.81.8.81.81 0 00.81-.82z" style="transform-origin:400.06px 138.215px 0" id="prefix__elpitjrbn4uwn" class="prefix__animable" fill="#51baa7"/><path d="M384.4 153.45h-2.82a.7.7 0 010-1.39h2.82a.7.7 0 110 1.39zm.7 2.53a.7.7 0 00-.7-.7h-2.82a.7.7 0 000 1.39h2.82a.69.69 0 00.7-.67zm0 3.22a.7.7 0 00-.7-.7h-2.82a.7.7 0 000 1.39h2.82a.69.69 0 00.7-.69zm0 3.22a.7.7 0 00-.7-.7h-2.82a.7.7 0 00-.69.7.69.69 0 00.69.69h2.82a.69.69 0 00.7-.69zm0 3.22a.69.69 0 00-.7-.69h-2.82a.69.69 0 00-.69.69.7.7 0 00.69.7h2.82a.7.7 0 00.7-.7zm0 3.22a.69.69 0 00-.7-.69h-2.82a.7.7 0 000 1.39h2.82a.7.7 0 00.7-.7zm0 3.22a.69.69 0 00-.7-.69h-2.82a.7.7 0 000 1.39h2.82a.7.7 0 00.7-.7zm0 3.22a.69.69 0 00-.7-.69h-2.82a.7.7 0 000 1.39h2.82a.7.7 0 00.7-.7zm10.54-22.54a.69.69 0 00-.69-.7h-7.4a.7.7 0 100 1.39H395a.69.69 0 00.64-.69zm0 3.22a.69.69 0 00-.69-.7h-7.4a.7.7 0 100 1.39H395a.69.69 0 00.64-.67zm0 3.22a.69.69 0 00-.69-.7h-7.4a.7.7 0 100 1.39H395a.69.69 0 00.64-.69zm0 3.22a.7.7 0 00-.69-.7h-7.4a.7.7 0 00-.7.7.69.69 0 00.7.69H395a.69.69 0 00.64-.69zm0 3.22a.69.69 0 00-.64-.64h-7.4a.69.69 0 00-.7.69.7.7 0 00.7.7h7.4a.7.7 0 00.64-.75zm8.86 3.22a.69.69 0 00-.7-.69h-7.39a.7.7 0 100 1.39h7.39a.7.7 0 00.7-.7zm0 3.22a.69.69 0 00-.7-.69h-7.39a.7.7 0 100 1.39h7.39a.7.7 0 00.7-.7zm0 3.22a.69.69 0 00-.7-.69h-7.39a.7.7 0 100 1.39h7.39a.7.7 0 00.7-.7zm-5.6-22.54a.81.81 0 10-.81.8.81.81 0 00.81-.8zm2.41 0a.81.81 0 10-.8.8.8.8 0 00.8-.8zm2.42 0a.81.81 0 10-.81.8.81.81 0 00.81-.8zm2.41 0a.81.81 0 10-.8.8.8.8 0 00.8-.8zm2.42 0a.81.81 0 10-.81.8.81.81 0 00.81-.8zm2.42 0a.81.81 0 10-.81.8.81.81 0 00.83-.8zm-12.08 6.44a.81.81 0 10-.81.8.81.81 0 00.81-.8zm2.41 0a.81.81 0 10-.8.8.8.8 0 00.8-.8zm2.42 0a.81.81 0 10-.81.8.81.81 0 00.81-.8zm2.41 0a.81.81 0 10-.8.8.8.8 0 00.8-.8zm2.42 0a.81.81 0 10-.81.8.81.81 0 00.81-.8zm2.42 0a.81.81 0 10-.81.8.81.81 0 00.83-.8zm-3.83 9.26a.81.81 0 10-.81.8.81.81 0 00.81-.8zm2.42 0a.81.81 0 10-.81.8.81.81 0 00.81-.8zm2.41 0a.81.81 0 10-.8.8.8.8 0 00.82-.8zm2.42 0a.81.81 0 10-.81.8.81.81 0 00.81-.8zm2.41 0a.81.81 0 10-.8.8.8.8 0 00.8-.8zm2.42 0a.81.81 0 10-.81.8.81.81 0 00.81-.8zm-12.08 6.64a.81.81 0 10-.81.81.8.8 0 00.81-.81zm2.42 0a.81.81 0 10-.81.81.8.8 0 00.81-.81zm2.41 0a.81.81 0 10-.8.81.8.8 0 00.82-.81zm2.42 0a.81.81 0 10-.81.81.8.8 0 00.81-.81zm2.41 0a.81.81 0 10-.8.81.8.8 0 00.8-.81zm2.42 0a.81.81 0 10-.81.81.8.8 0 00.81-.81z" style="transform-origin:400.06px 163.973px 0" id="prefix__elb0bfdo64qi" class="prefix__animable" fill="#51baa7"/><path d="M384.4 179.85h-2.82a.7.7 0 010-1.39h2.82a.7.7 0 110 1.39zm.7 2.52a.69.69 0 00-.7-.69h-2.82a.7.7 0 000 1.39h2.82a.7.7 0 00.7-.7zm0 3.22a.69.69 0 00-.7-.69h-2.82a.7.7 0 000 1.39h2.82a.7.7 0 00.7-.7zm0 3.23a.7.7 0 00-.7-.7h-2.82a.7.7 0 000 1.39h2.82a.69.69 0 00.7-.69zm0 3.22a.7.7 0 00-.7-.7h-2.82a.7.7 0 000 1.39h2.82a.69.69 0 00.7-.73zm0 3.22a.7.7 0 00-.7-.7h-2.82a.7.7 0 000 1.39h2.82a.69.69 0 00.7-.69zm0 3.22a.7.7 0 00-.7-.7h-2.82a.7.7 0 000 1.39h2.82a.69.69 0 00.7-.69zm0 3.22a.7.7 0 00-.7-.7h-2.82a.7.7 0 000 1.39h2.82a.69.69 0 00.7-.69zm10.54-22.55a.69.69 0 00-.69-.69h-7.4a.7.7 0 100 1.39H395a.69.69 0 00.64-.7zm0 3.22a.69.69 0 00-.69-.69h-7.4a.7.7 0 100 1.39H395a.69.69 0 00.64-.7zm0 3.22a.69.69 0 00-.69-.69h-7.4a.7.7 0 100 1.39H395a.69.69 0 00.64-.7zm0 3.23a.69.69 0 00-.69-.7h-7.4a.7.7 0 100 1.39H395a.69.69 0 00.64-.69zm0 3.22a.69.69 0 00-.69-.7h-7.4a.7.7 0 100 1.39H395a.69.69 0 00.64-.73zm8.86 3.22a.7.7 0 00-.7-.7h-7.39a.7.7 0 100 1.39h7.39a.69.69 0 00.7-.69zm0 3.22a.7.7 0 00-.7-.7h-7.39a.7.7 0 100 1.39h7.39a.69.69 0 00.7-.69zm0 3.22a.7.7 0 00-.7-.7h-7.39a.7.7 0 100 1.39h7.39a.69.69 0 00.7-.69zm-5.6-22.55a.81.81 0 10-.81.81.8.8 0 00.81-.81zm2.41 0a.81.81 0 10-.8.81.8.8 0 00.8-.81zm2.42 0a.81.81 0 10-.81.81.8.8 0 00.81-.81zm2.41 0a.81.81 0 10-.8.81.8.8 0 00.8-.81zm2.42 0a.81.81 0 10-.81.81.8.8 0 00.81-.81zm2.42 0a.81.81 0 10-.81.81.81.81 0 00.83-.81zm-12.08 6.44a.81.81 0 10-.81.81.8.8 0 00.81-.81zm2.41 0a.81.81 0 10-.8.81.8.8 0 00.8-.81zm2.42 0a.81.81 0 10-.81.81.8.8 0 00.81-.81zm2.41 0a.81.81 0 10-.8.81.8.8 0 00.8-.81zm2.42 0a.81.81 0 10-.81.81.8.8 0 00.81-.81zm2.42 0a.81.81 0 10-.81.81.81.81 0 00.83-.81zm-3.83 9.26a.81.81 0 10-.81.81.8.8 0 00.81-.81zm2.42 0a.81.81 0 10-.81.81.8.8 0 00.81-.81zm2.41 0a.81.81 0 10-.8.81.8.8 0 00.82-.81zm2.42 0a.81.81 0 10-.81.81.8.8 0 00.81-.81zm2.41 0a.81.81 0 10-.8.81.8.8 0 00.8-.81zm2.42 0a.81.81 0 10-.81.81.8.8 0 00.81-.81zm-12.08 6.65a.81.81 0 10-.81.8.81.81 0 00.81-.8zm2.42 0a.81.81 0 10-.81.8.81.81 0 00.81-.8zm2.41 0a.81.81 0 10-.8.8.8.8 0 00.82-.8zm2.42 0a.81.81 0 10-.81.8.81.81 0 00.81-.8zm2.41 0a.81.81 0 10-.8.8.8.8 0 00.8-.8zm2.42 0a.81.81 0 10-.81.8.81.81 0 00.81-.8z" style="transform-origin:400.097px 190.368px 0" id="prefix__el4kjppjul1kw" class="prefix__animable" fill="#51baa7"/><path d="M427.67 127.68h-2.82a.7.7 0 010-1.39h2.82a.7.7 0 110 1.39zm.7 2.52a.69.69 0 00-.7-.69h-2.82a.7.7 0 000 1.39h2.82a.7.7 0 00.7-.7zm0 3.23a.7.7 0 00-.7-.7h-2.82a.7.7 0 000 1.39h2.82a.69.69 0 00.7-.69zm0 3.22a.7.7 0 00-.7-.7h-2.82a.7.7 0 000 1.39h2.82a.69.69 0 00.7-.69zm0 3.22a.7.7 0 00-.7-.7h-2.82a.7.7 0 000 1.39h2.82a.69.69 0 00.7-.69zm0 3.22a.7.7 0 00-.7-.7h-2.82a.7.7 0 000 1.39h2.82a.69.69 0 00.7-.69zm0 3.22a.7.7 0 00-.7-.7h-2.82a.7.7 0 000 1.39h2.82a.69.69 0 00.7-.69zm0 3.22a.7.7 0 00-.7-.7h-2.82a.7.7 0 00-.69.7.69.69 0 00.69.69h2.82a.69.69 0 00.7-.69zM438.91 127a.69.69 0 00-.7-.69h-7.39a.7.7 0 100 1.39h7.39a.7.7 0 00.7-.7zm0 3.22a.69.69 0 00-.7-.69h-7.39a.7.7 0 100 1.39h7.39a.7.7 0 00.7-.72zm0 3.23a.7.7 0 00-.7-.7h-7.39a.7.7 0 100 1.39h7.39a.69.69 0 00.7-.71zm0 3.22a.7.7 0 00-.7-.7h-7.39a.7.7 0 100 1.39h7.39a.69.69 0 00.7-.71zm0 3.22a.7.7 0 00-.7-.7h-7.39a.7.7 0 100 1.39h7.39a.69.69 0 00.7-.71zm8.86 3.22a.7.7 0 00-.7-.7h-7.4a.7.7 0 000 1.39h7.4a.69.69 0 00.7-.71zm0 3.22a.7.7 0 00-.7-.7h-7.4a.7.7 0 000 1.39h7.4a.69.69 0 00.7-.71zm0 3.22a.7.7 0 00-.7-.7h-7.4a.7.7 0 00-.69.7.69.69 0 00.69.69h7.4a.69.69 0 00.7-.71zm-5.6-22.55a.81.81 0 00-.81-.8.81.81 0 000 1.61.81.81 0 00.81-.81zm2.41 0a.81.81 0 10-.8.81.8.8 0 00.8-.81zm2.42 0a.81.81 0 10-.81.81.8.8 0 00.81-.81zm2.41 0a.81.81 0 10-.8.81.8.8 0 00.8-.81zm2.42 0a.81.81 0 10-.81.81.8.8 0 00.81-.81zm2.41 0a.81.81 0 10-.8.81.8.8 0 00.8-.81zm-12.07 6.45a.81.81 0 00-.81-.81.81.81 0 10.81.81zm2.41 0a.81.81 0 10-.8.8.8.8 0 00.8-.82zm2.42 0a.81.81 0 10-.81.8.81.81 0 00.81-.82zm2.41 0a.81.81 0 10-.8.8.8.8 0 00.8-.82zm2.42 0a.81.81 0 10-.81.8.81.81 0 00.81-.82zm2.41 0a.81.81 0 10-.8.8.8.8 0 00.8-.82zm-3.82 9.26a.81.81 0 10-.81.8.81.81 0 00.81-.82zm2.41 0a.81.81 0 10-.8.8.8.8 0 00.8-.82zm2.42 0a.81.81 0 10-.8.8.8.8 0 00.8-.82zm2.42 0a.81.81 0 10-.81.8.81.81 0 00.81-.82zm2.41 0a.81.81 0 10-.8.8.8.8 0 00.8-.82zm2.42 0a.81.81 0 10-.81.8.81.81 0 00.81-.82zm-12.08 6.64a.81.81 0 10-.81.8.81.81 0 00.81-.82zm2.41 0a.81.81 0 10-.8.8.8.8 0 00.8-.82zm2.42 0a.81.81 0 10-.8.8.8.8 0 00.8-.82zm2.42 0a.81.81 0 10-.81.8.81.81 0 00.81-.82zm2.41 0a.81.81 0 10-.8.8.8.8 0 00.8-.82zm2.42 0a.81.81 0 10-.81.8.81.81 0 00.81-.82z" style="transform-origin:443.33px 138.215px 0" id="prefix__el7isenypcgu9" class="prefix__animable" fill="#51baa7"/><path d="M427.67 154.07h-2.82a.69.69 0 01-.69-.69.7.7 0 01.69-.7h2.82a.7.7 0 01.7.7.69.69 0 01-.7.69zm.7 2.53a.69.69 0 00-.7-.69h-2.82a.69.69 0 00-.69.69.7.7 0 00.69.7h2.82a.7.7 0 00.7-.7zm0 3.22a.69.69 0 00-.7-.69h-2.82a.7.7 0 000 1.39h2.82a.7.7 0 00.7-.7zm0 3.22a.69.69 0 00-.7-.69h-2.82a.7.7 0 000 1.39h2.82a.7.7 0 00.7-.74zm0 3.22a.69.69 0 00-.7-.69h-2.82a.7.7 0 000 1.39h2.82a.7.7 0 00.7-.7zm0 3.22a.69.69 0 00-.7-.69h-2.82a.7.7 0 000 1.39h2.82a.7.7 0 00.7-.7zm0 3.22a.69.69 0 00-.7-.69h-2.82a.7.7 0 000 1.39h2.82a.7.7 0 00.7-.7zm0 3.23a.7.7 0 00-.7-.7h-2.82a.7.7 0 000 1.39h2.82a.69.69 0 00.7-.69zm10.54-22.55a.7.7 0 00-.7-.7h-7.39a.7.7 0 00-.7.7.69.69 0 00.7.69h7.39a.69.69 0 00.7-.69zm0 3.22a.69.69 0 00-.7-.69h-7.39a.69.69 0 00-.7.69.7.7 0 00.7.7h7.39a.7.7 0 00.7-.7zm0 3.22a.69.69 0 00-.7-.69h-7.39a.7.7 0 100 1.39h7.39a.7.7 0 00.7-.7zm0 3.22a.69.69 0 00-.7-.69h-7.39a.7.7 0 100 1.39h7.39a.7.7 0 00.7-.74zm0 3.22a.69.69 0 00-.7-.69h-7.39a.7.7 0 100 1.39h7.39a.7.7 0 00.7-.7zm8.86 3.22a.69.69 0 00-.7-.69h-7.4a.7.7 0 000 1.39h7.4a.7.7 0 00.7-.7zm0 3.22a.69.69 0 00-.7-.69h-7.4a.7.7 0 000 1.39h7.4a.7.7 0 00.7-.7zm0 3.23a.7.7 0 00-.7-.7h-7.4a.7.7 0 000 1.39h7.4a.69.69 0 00.7-.69zm-5.6-22.55a.81.81 0 00-.81-.81.81.81 0 10.81.81zm2.41 0a.81.81 0 10-.8.8.8.8 0 00.8-.8zm2.42 0a.81.81 0 10-.81.8.81.81 0 00.81-.8zm2.41 0a.81.81 0 10-.8.8.8.8 0 00.8-.8zm2.42 0a.81.81 0 10-.81.8.81.81 0 00.81-.8zm2.41 0a.81.81 0 10-.8.8.8.8 0 00.8-.8zm-12.07 6.44a.81.81 0 00-.81-.8.81.81 0 000 1.61.81.81 0 00.81-.81zm2.41 0a.81.81 0 10-.8.81.8.8 0 00.8-.81zm2.42 0a.81.81 0 10-.81.81.8.8 0 00.81-.81zm2.41 0a.81.81 0 10-.8.81.8.8 0 00.8-.81zm2.42 0a.81.81 0 10-.81.81.8.8 0 00.81-.81zm2.41 0a.81.81 0 10-.8.81.8.8 0 00.8-.81zm-3.82 9.26a.81.81 0 10-.81.81.8.8 0 00.81-.81zm2.41 0a.81.81 0 10-.8.81.8.8 0 00.8-.81zm2.42 0a.81.81 0 10-.8.81.8.8 0 00.8-.81zm2.42 0a.81.81 0 10-.81.81.8.8 0 00.81-.81zm2.41 0a.81.81 0 10-.8.81.8.8 0 00.8-.81zm2.42 0a.81.81 0 10-.81.81.8.8 0 00.81-.81zm-12.08 6.64a.81.81 0 10-.81.81.8.8 0 00.81-.81zm2.41 0a.81.81 0 10-.8.81.8.8 0 00.8-.81zm2.42 0a.81.81 0 10-.8.81.8.8 0 00.8-.81zm2.42 0a.81.81 0 10-.81.81.8.8 0 00.81-.81zm2.41 0a.81.81 0 10-.8.81.8.8 0 00.8-.81zm2.42 0a.81.81 0 10-.81.81.8.8 0 00.81-.81z" style="transform-origin:443.33px 164.59px 0" id="prefix__el9u8kvhjkgvs" class="prefix__animable" fill="#51baa7"/><path style="transform-origin:360.47px 237.605px 0" id="prefix__elbqqh2tyk3xv" class="prefix__animable" fill="#fff" stroke="#8f8f8f" stroke-miterlimit="10" d="M347.39 226.85h26.16v21.51h-26.16z"/><path style="transform-origin:360.32px 237.455px 0" id="prefix__el648pkepk4kk" class="prefix__animable" fill="none" stroke="#8f8f8f" stroke-miterlimit="10" d="M347.68 238.47l9.88-6.39 5.81 7.85 4.94-2.62 4.65 5.52"/><path d="M370.35 232.08a3.2 3.2 0 11-3.2-3.2 3.2 3.2 0 013.2 3.2z" style="transform-origin:367.15px 232.08px 0" id="prefix__elmlz2c1leju" class="prefix__animable" fill="none" stroke="#8f8f8f" stroke-miterlimit="10"/><path style="transform-origin:141.245px 373.42px 0" id="prefix__elsfq613rcku7" class="prefix__animable" fill="none" stroke="#8f8f8f" stroke-miterlimit="10" d="M125.88 373.42h30.73"/><path style="transform-origin:130.15px 367.04px 0" id="prefix__elj91662qgmyo" class="prefix__animable" fill="#51baa7" d="M127.93 360.97h4.44v12.14h-4.44z"/><path style="transform-origin:137.66px 362.08px 0" id="prefix__elpx1hayf9gnh" class="prefix__animable" fill="#51baa7" d="M135.44 351.06h4.44v22.04h-4.44z"/><path style="transform-origin:145.17px 364.005px 0" id="prefix__el5npiz8n0uru" class="prefix__animable" fill="#51baa7" d="M142.95 354.9h4.44v18.21h-4.44z"/><path style="transform-origin:152.68px 369.275px 0" id="prefix__el68drtjkg0yf" class="prefix__animable" fill="#51baa7" d="M150.46 365.44h4.44v7.67h-4.44z"/><circle cx="140.54" cy="364.08" r="20.67" style="transform-origin:140.54px 364.08px 0" id="prefix__el2omngq6e7xl" class="prefix__animable" fill="none" stroke="#8f8f8f" stroke-miterlimit="10"/></g><g id="prefix__freepik--Floor--inject-151" style="transform-origin:252.915px 477.27px 0;animation:1s 1 forwards cubic-bezier(.36,-.01,.5,1.38) slideUp;animation-delay:0s" class="prefix__animable"><path style="transform-origin:252.915px 477.27px 0" id="prefix__elouirl3hnm4m" class="prefix__animable" fill="none" stroke="#263238" stroke-linecap="round" stroke-linejoin="round" d="M29 477.27h447.83"/></g><defs><filter id="prefix__active" height="200%"><feMorphology in="SourceAlpha" result="DILATED" operator="dilate" radius="2"/><feFlood flood-color="#32DFEC" flood-opacity="1" result="PINK"/><feComposite in="PINK" in2="DILATED" operator="in" result="OUTLINE"/><feMerge><feMergeNode in="OUTLINE"/><feMergeNode in="SourceGraphic"/></feMerge></filter><filter id="prefix__hover" height="200%"><feMorphology in="SourceAlpha" result="DILATED" operator="dilate" radius="2"/><feFlood flood-color="red" flood-opacity=".5" result="PINK"/><feComposite in="PINK" in2="DILATED" operator="in" result="OUTLINE"/><feMerge><feMergeNode in="OUTLINE"/><feMergeNode in="SourceGraphic"/></feMerge><feColorMatrix values="0 0 0 0 0 0 1 0 0 0 0 0 0 0 0 0 0 0 1 0"/></filter></defs></svg>
