<?xml version="1.0" encoding="utf-8"?>
<!-- Generator: Adobe Illustrator 15.1.0, SVG Export Plug-In . SVG Version: 6.00 Build 0)  -->
<!DOCTYPE svg PUBLIC "-//W3C//DTD SVG 1.1//EN" "http://www.w3.org/Graphics/SVG/1.1/DTD/svg11.dtd">
<svg version="1.1" id="Layer_1" xmlns="http://www.w3.org/2000/svg" xmlns:xlink="http://www.w3.org/1999/xlink" x="0px" y="0px"
	 width="559px" height="559px" viewBox="0 0 559 559" enable-background="new 0 0 559 559" xml:space="preserve">
<path opacity="0.12" fill="#6C6C7C" d="M302.511,503.518c0,6.588,54.648,11.923,122.065,11.923
	c67.412,0,122.055-5.335,122.055-11.923c0-6.584-54.643-11.925-122.055-11.925C357.159,491.593,302.511,496.934,302.511,503.518z"/>
<path opacity="0.12" fill="#6C6C7C" d="M25.064,496.316c0,6.588,54.648,11.924,122.066,11.924
	c67.411,0,122.053-5.336,122.053-11.924c0-6.584-54.642-11.923-122.053-11.923C79.712,484.394,25.064,489.732,25.064,496.316z"/>
<g>
	<path fill="#DB8B8B" d="M454.048,475.033l2.584,7.76l-8.438,8.438l-27.918,6.489l-20.125-1.946l1.301-7.146l0,0
		c0.788-3.128,3.252-5.55,6.396-6.287c8.277-1.945,24.048-6.376,27.364-12.539L454.048,475.033z"/>
	<path opacity="0.1" fill="#010202" enable-background="new    " d="M454.048,475.033l2.584,7.76l-8.438,8.438l-27.918,6.489
		l-20.125-1.946l1.301-7.146l0,0c0.788-3.128,3.252-5.55,6.396-6.287c8.277-1.945,24.048-6.376,27.364-12.539L454.048,475.033z"/>
	<path fill="#403F56" d="M406.647,493.825l3.897-5.171l-3.897-6.035c0,0-11.678,4.712-16.88,4.071
		c-5.193-0.649-7.755,8.435,1.953,11.029c9.703,2.595,64.924,0,64.924,0s9.736-4.541,0-16.881l-8.442,6.492
		c0,0-14.283,7.764-21.429,6.494H406.647z"/>
	<path fill="#DB8B8B" d="M389.125,504.867l20.125,1.948l27.921-6.501l8.466-8.438l-0.692-2.062l-0.964-2.896l-0.949-2.833
		l-18.827-5.173c-0.952,1.556-2.26,2.862-3.814,3.819c-6.114,4.18-17.103,7.207-23.55,8.717c-0.266,0.067-0.541,0.143-0.804,0.236
		c-2.773,0.923-4.884,3.199-5.592,6.035L389.125,504.867z"/>
	<path opacity="0.1" fill="#010202" enable-background="new    " d="M389.125,504.867l20.125,1.948l27.921-6.501l8.466-8.438
		l-0.692-2.062l-7.758,5.959c0,0-14.29,7.759-21.427,6.494h-20.123l3.898-5.175l-3.499-5.408c-2.773,0.923-4.884,3.199-5.592,6.035
		L389.125,504.867z"/>
	<path fill="#403F56" d="M395.637,502.921l3.898-5.175l-3.898-6.032c0,0-11.687,4.714-16.876,4.068
		c-5.187-0.649-7.755,8.438,1.941,11.043c9.697,2.6,64.935,0,64.935,0s9.743-4.553,0-16.887l-8.441,6.489
		c0,0-14.292,7.759-21.43,6.5L395.637,502.921z"/>
	<path fill="#DB8B8B" d="M411.847,126.345c0,0,31.159,3.24,26.613-9.741c-1.268-3.68-1.595-7.624-0.952-11.461
		c0.807-4.762,2.687-9.284,5.498-13.208l-29.215,4.541c1.756,2.926,3.085,6.083,3.959,9.377
		C421.23,119.637,411.847,126.345,411.847,126.345z"/>
	<path fill="#35323E" d="M465.082,274.372c0,0-0.646,27.921-7.14,41.557l-1.298,39.6c0,0,1.943,36.363,5.842,43.503
		c3.895,7.136-8.438,67.53-8.438,67.53v10.388c0,0-20.774,7.758-26.616-1.304l5.842-77.26l-2.584-107.126L465.082,274.372z"/>
	<path fill="#403F56" d="M465.089,274.372c0,0-0.649,27.921-7.135,41.557l-1.304,39.6c0,0,1.95,36.363,5.845,43.503
		c3.897,7.136-8.438,67.53-8.438,67.53v10.388c0,0-20.771,7.758-26.613-1.304l5.842-77.26l-2.587-107.126L465.089,274.372z"/>
	<path fill="#7D5BA2" d="M478.07,184.78l3.901,10.385l3.236,22.076c0.893,6.237-1.286,12.523-5.845,16.876
		c-7.759,7.759-18.179,24.023-18.179,24.023l-12.333-37.006c0,0,12.333-1.946,10.343-10.384c-1.99-8.437-1.295-24.026-1.295-24.026
		L478.07,184.78z"/>
	<path opacity="0.1" fill="#010202" enable-background="new    " d="M420.362,482.717c8.333,13.109,21.291,5.675,23.593,4.201
		l-0.949-2.833l-18.826-5.173C423.225,480.463,421.917,481.763,420.362,482.717z"/>
	<path fill="#403F56" d="M394.314,299.697c0.655,9.084,11.687,42.237,11.687,42.237l7.758,27.246
		c5.595,19.254,8.487,39.191,8.603,59.237c0,6.646,0.615,13.508,2.484,18.659c5.171,14.286-5.174,33.762-5.174,33.762
		c9.085,16.235,24.669,5.175,24.669,5.175v-10.342c0,0,12.303-56.516,9.054-67.544c-3.252-11.034-4.55-40.912-4.55-40.912v-53.882
		c10.404-10.369,16.731-24.141,17.813-38.789c0.151-2.129,0.281-4.365,0.361-6.683c0.525-14.647-9.483-31.821-13.394-37.925
		c-0.948-1.483-1.536-2.31-1.536-2.31l-57.312,22.736l-0.133,0.057v2.211v4.916L394.314,299.697z"/>
	<path opacity="0.1" fill="#010202" enable-background="new    " d="M413.791,96.475c1.756,2.926,3.085,6.083,3.959,9.377
		c6.41,2.448,13.539,2.185,19.758-0.709c0.807-4.762,2.687-9.284,5.498-13.208L413.791,96.475z"/>
	<path fill="#DB8B8B" d="M426.773,55.562c-13.984,0-25.322,11.342-25.322,25.326c0,13.99,11.338,25.328,25.322,25.328
		c13.986,0,25.326-11.338,25.326-25.328C452.1,66.905,440.76,55.562,426.773,55.562z"/>
	<path opacity="0.1" fill="#010202" enable-background="new    " d="M394.314,257.491l0.284,0.057
		c27.219,5.595,61.381-22.772,61.381-22.772c-0.918-1.544-1.706-3.162-2.358-4.838c-0.955-1.483-1.539-2.31-1.539-2.31
		l-57.304,22.736l-0.148,2.269L394.314,257.491z"/>
	<path fill="#7D5BA2" d="M401.46,125.695c0,0,36.356-22.074,48.043-12.99l16.23,20.775c0,0,10.389,3.251,8.438,24.027l7.759,37.657
		l-23.365,5.845c0,0-13.641,12.978-2.587,31.816c0,0-34.412,28.563-61.684,22.719l1.966-30.487c0,0,5.842-16.883-4.541-32.461
		c-10.392-15.577-0.649-30.516,9.084-36.362C400.812,156.211,405.353,131.531,401.46,125.695z"/>
	<path fill="#DB8B8B" d="M399.51,258.141c0,0-13.637,2.587-20.125,12.988c-1.88,3.125-4.167,5.98-6.804,8.493
		c-2.099,1.941-2.225,5.211-0.281,7.307c0.322,0.35,0.689,0.654,1.091,0.898c5.171,3.102,13.551,5.011,24.134-3.714
		C415.744,269.182,399.51,258.141,399.51,258.141z"/>
	<path opacity="0.1" fill="#010202" enable-background="new    " d="M419.639,137.998c0,0,12.979-1.303,16.234,32.461
		c3.248,33.766,8.438,41.55,8.438,41.55s3.249,17.531-4.546,27.921c-7.79,10.384-22.722,32.54-22.722,32.54
		s-16.237,4.548-19.479-11.695l20.125-37.646c0,0,3.243-12.992-4.541-22.079C405.365,191.966,399.51,131.531,419.639,137.998z"/>
	<path fill="#7D5BA2" d="M418.334,136.083c0,0,12.992-1.3,16.234,32.461c3.239,33.769,8.438,41.551,8.438,41.551
		s3.25,17.547-4.546,27.895c-7.789,10.342-22.716,32.461-22.716,32.461s-16.234,4.551-19.482-11.679l20.128-37.664
		c0,0,3.249-12.99-4.543-22.075C404.051,189.946,398.225,129.585,418.334,136.083z"/>
	<path opacity="0.1" fill="#010202" enable-background="new    " d="M407.621,160.406c0,0-1.295,20.13,4.556,31.174
		c5.842,11.042,5.842,25.315,0,33.107"/>
	<path opacity="0.1" fill="#010202" enable-background="new    " d="M404.379,135.756c0,0,5.177-5.171,20.132-5.845
		c14.953-0.671,21.42-5.171,21.42-5.171"/>
	<path opacity="0.1" fill="#010202" enable-background="new    " d="M440.463,48.172c3.95,0.48,8.457,1.833,9.878,5.552
		c0.523,1.358,0.535,2.861,0.906,4.307c1.478,5.67,7.849,8.31,11.792,12.644c3.446,3.827,5.008,9.009,6.136,14.05
		c3.242,14.466,4.028,29.366,2.321,44.084c-1.271,10.768-3.857,21.362-4.584,32.18c-0.735,10.815,0.603,22.195,6.517,31.279
		c2.58,3.916,5.894,7.346,7.693,11.648c-3.722,3.012-8.859,3.448-13.65,3.609c-5.589,0.188-11.174,0.188-16.756,0
		c-2.934-0.105-5.994-0.292-8.52-1.776c-1.869-1.194-3.409-2.843-4.472-4.795c-3.193-5.418-4.003-11.934-3.864-18.229
		c0.143-6.29,1.125-12.539,1.249-18.833c0.064-3.446-0.204-7.071-2.18-9.875c-1.425-2.028-3.588-3.388-5.439-5.037
		c-6.958-6.155-9.335-16.031-9.563-25.315c-0.239-9.287,1.289-18.584,0.503-27.834c-0.296-3.627-1.654-7.973-5.224-8.679
		c-1.119-0.225-2.318,0-3.388-0.431c-2.862-1.098-2.584-5.131-3.391-8.074c-0.924-3.32-3.756-5.882-4.55-9.223
		c-1.87-7.858,8.133-17.245,14.654-19.968C423.299,46.625,433.465,47.308,440.463,48.172z"/>
	<path fill="#35323E" d="M441.146,46.877c3.95,0.484,8.454,1.833,9.876,5.544c0.368,1.418,0.655,2.855,0.865,4.31
		c1.472,5.667,7.86,8.311,11.799,12.652c3.446,3.823,5.011,8.999,6.135,14.05c3.23,14.472,3.997,29.381,2.278,44.11
		c-1.267,10.763-3.854,21.37-4.574,32.177c-0.727,10.808,0.593,22.195,6.506,31.282c2.585,3.909,5.893,7.346,7.697,11.641
		c-3.722,3.033-8.858,3.453-13.656,3.617c-5.585,0.188-11.171,0.188-16.756,0c-2.934-0.105-5.991-0.285-8.513-1.775
		c-1.876-1.195-3.416-2.842-4.467-4.796c-3.199-5.419-4.003-11.935-3.873-18.229c0.13-6.29,1.141-12.539,1.252-18.832
		c0.059-3.448-0.21-7.072-2.173-9.874c-1.432-2.033-3.595-3.391-5.446-5.032c-6.948-6.167-9.334-16.04-9.567-25.327
		c-0.234-9.284,1.299-18.582,0.514-27.831c-0.31-3.619-1.66-7.973-5.221-8.672c-1.134-0.224-2.333,0-3.4-0.439
		c-2.859-1.097-2.587-5.118-3.397-8.081c-0.908-3.317-3.737-5.867-4.541-9.213c-1.87-7.859,8.129-17.24,14.654-19.971
		C423.957,45.341,434.107,46.01,441.146,46.877z"/>
</g>
<g>
	<path fill="#302F42" d="M101.818,264.875c0,0-5.878,70.667-7.137,85.807c-0.864,9.494-2.989,18.832-6.31,27.766
		c0,0-2.522,5.044-2.522,10.094v64.355c0,0-5.047,0-3.786,5.047c1.261,5.049,2.525,13.882,2.525,13.882h18.93
		c0,0-1.265-3.788,2.521-5.049c3.787-1.262,0-11.356,0-11.356l20.19-75.712l30.286-63.095c0,0,17.669,56.786,21.45,63.095
		c0,0,13.88,70.667,16.408,76.975c2.522,6.31,3.781,6.31,2.522,8.832c-1.264,2.522-1.264,5.05,0,6.311
		c1.258,1.259,25.236,0,25.236,0l-6.311-89.597l-11.356-107.26l-58.046-17.662L101.818,264.875z"/>
	<path fill="#302F42" d="M98.469,461.728c0,0-6.309-22.712-16.407-5.045c-10.094,17.663-10.094,23.975-10.094,23.975
		s-16.406,23.977,6.31,21.452c22.709-2.523,17.662-13.878,17.662-13.878s8.837-5.05,8.837-8.835
		C104.777,475.613,98.469,461.728,98.469,461.728z"/>
	<path fill="#302F42" d="M200.681,459.206c0,0,6.309-22.718,16.401-5.051c10.098,17.67,10.098,23.979,10.098,23.979
		s16.403,23.976-6.312,21.452c-22.715-2.524-17.667-13.882-17.667-13.882s-8.828-5.047-8.828-8.833
		C194.373,473.084,200.681,459.206,200.681,459.206z"/>
	<path fill="#A1626A" d="M141.37,94.52c0,0,2.524,16.407-5.044,20.189c-7.575,3.788,16.4,17.667,22.71,17.667
		c6.311,0,17.668-12.62,17.668-12.62s-6.308-18.929-5.047-22.711L141.37,94.52z"/>
	<path fill="#A1626A" d="M155.253,54.139c14.631,0,26.499,11.862,26.499,26.5c0,14.639-11.868,26.499-26.499,26.499
		c-14.636,0-26.502-11.86-26.502-26.499C128.751,66.001,140.617,54.139,155.253,54.139z"/>
	<path fill="#F59D1E" d="M206.99,134.903l-31.547-19.117c0,0-17.95,20.378-37.367-2.339l-33.299,8.836l5.047,85.805
		c0,0-7.573,34.07-5.047,40.381c2.522,6.309-6.309,8.837-3.79,10.097c2.529,1.261,0,10.092,0,10.092s49.218,25.237,103.477,6.31
		l-5.048-16.402c1.397-4.361,0.445-9.132-2.522-12.619c0,0,5.047-7.57-1.264-13.882c0,0,2.522-11.356-3.787-16.405l-1.259-17.668
		l3.788-8.83L206.99,134.903z"/>
	<path fill="#302F42" d="M141.689,68.336c0,0-3.157,6.834,9.478,4.099c0,0,4.74,2.736,4.74-1.368c0,0,6.319,6.842,7.899,2.737
		c1.579-4.101,4.738,1.366,4.738,1.366l3.157-6.834l3.161,4.099h11.056c0,0,3.163-27.344-34.751-24.614
		c-37.915,2.738-19.263,46.068-19.263,46.068s0.308-7.779,3.468-3.675C138.532,94.314,141.689,68.336,141.689,68.336z"/>
	<path fill="#A1626A" d="M218.345,185.373l1.266,26.5c0,0,5.044,49.216-5.049,70.671v11.351c0,0-2.527,29.026-15.144,27.766
		c-12.616-1.265,3.784-41.646,3.784-41.646l-2.52-55.523l-2.528-31.542L218.345,185.373z"/>
	<path fill="#CFCCDF" d="M193.111,136.165l12.583-2.047c9.066,8.712,15.251,19.995,17.699,32.328
		c3.787,20.193,5.047,23.977,5.047,23.977l-30.288,7.57l-16.401-31.547L193.111,136.165z"/>
	<path fill="#D0CDE1" d="M329.492,112.818H150.215c-8.772,0-15.882,7.109-15.882,15.881l0,0v87.347
		c0,8.772,7.109,15.879,15.882,15.879l0,0h179.277c8.772,0,15.878-7.107,15.878-15.879V128.7
		C345.37,119.928,338.264,112.818,329.492,112.818L329.492,112.818z"/>
	<path fill="#A1626A" d="M85.848,170.233c0,0-11.356,47.947,2.522,47.947c13.881,0,46.689-54.257,46.689-54.257
		s34.071-17.667,20.193-23.979c-13.884-6.309-31.548,10.097-31.548,10.097l-20.387,28.304l-1.066-14.422L85.848,170.233z"/>
	<path fill="#F59D1E" d="M112.349,129.853l-7.571-7.57c0,0-15.146,8.832-16.407,17.662c-1.263,8.835-7.57,36.599-7.57,36.599
		l23.343,1.893l7.573-11.358L112.349,129.853z"/>
</g>
<g>
	<path fill="#FFFFFF" d="M204.911,177.249h6.76v11.957h-6.76v14.118h-15.544v-14.118h-25.938l-0.919-9.492l26.857-43.21v-0.138
		h15.544V177.249z M176.398,177.249h12.969v-20.694l-0.276-0.093l-1.196,1.894L176.398,177.249z"/>
	<path fill="#FFFFFF" d="M264.971,176.881c0,9.044-2.101,15.874-6.301,20.487c-4.201,4.615-9.857,6.921-16.969,6.921
		c-7.174,0-12.862-2.307-17.062-6.921c-4.201-4.614-6.3-11.443-6.3-20.487v-14.072c0-9.044,2.084-15.873,6.254-20.488
		c4.169-4.614,9.841-6.921,17.015-6.921c7.144,0,12.823,2.315,17.039,6.944c4.215,4.63,6.324,11.451,6.324,20.465V176.881z
		 M249.473,161.751c0-5.12-0.675-8.799-2.023-11.037c-1.35-2.237-3.296-3.357-5.841-3.357c-2.575,0-4.515,1.12-5.817,3.357
		c-1.303,2.238-1.954,5.917-1.954,11.037v16.096c0,5.213,0.659,8.93,1.977,11.152c1.318,2.223,3.28,3.334,5.887,3.334
		c2.544,0,4.476-1.111,5.794-3.334c1.318-2.223,1.978-5.939,1.978-11.152V161.751z"/>
	<path fill="#FFFFFF" d="M313.994,177.249h6.76v11.957h-6.76v14.118H298.45v-14.118h-25.938l-0.919-9.492l26.857-43.21v-0.138
		h15.544V177.249z M285.481,177.249h12.969v-20.694l-0.276-0.093l-1.196,1.894L285.481,177.249z"/>
</g>
</svg>
